<?xml version="1.0" encoding="UTF-8" standalone="no"?>
<!-- Created with Inkscape (http://www.inkscape.org/) -->

<svg
   width="4.2835164mm"
   height="4.2848382mm"
   viewBox="0 0 4.2835164 4.2848382"
   version="1.1"
   id="svg884"
   inkscape:version="1.1.2 (0a00cf5339, 2022-02-04)"
   sodipodi:docname="favicon.svg"
   xmlns:inkscape="http://www.inkscape.org/namespaces/inkscape"
   xmlns:sodipodi="http://sodipodi.sourceforge.net/DTD/sodipodi-0.dtd"
   xmlns="http://www.w3.org/2000/svg"
   xmlns:svg="http://www.w3.org/2000/svg">
  <sodipodi:namedview
     id="namedview886"
     pagecolor="#ffffff"
     bordercolor="#666666"
     borderopacity="1.0"
     inkscape:pageshadow="2"
     inkscape:pageopacity="0.0"
     inkscape:pagecheckerboard="true"
     inkscape:document-units="mm"
     showgrid="false"
     showborder="false"
     inkscape:zoom="10.925474"
     inkscape:cx="13.500558"
     inkscape:cy="13.683616"
     inkscape:window-width="1364"
     inkscape:window-height="716"
     inkscape:window-x="0"
     inkscape:window-y="21"
     inkscape:window-maximized="1"
     inkscape:current-layer="layer1" />
  <defs
     id="defs881" />
  <g
     inkscape:label="Livello 1"
     inkscape:groupmode="layer"
     id="layer1"
     transform="translate(-84.382021,-56.490422)">
    <g
       id="g1172">
      <path
         id="polyline34-3-6"
         style="vector-effect:non-scaling-stroke;fill:#4169e1;fill-opacity:1;stroke:none;stroke-width:1.32377e-06;stroke-opacity:1;-inkscape-stroke:hairline"
         d="m 86.177252,60.526109 c -0.306895,-0.219674 -0.57981,-0.476299 -0.817225,-0.767134 -0.528529,-0.647482 -0.854605,-1.444327 -0.932767,-2.263992 0.0543,-0.0308 0.108952,-0.0605 0.164053,-0.0887 0.627372,-0.320246 1.309204,-0.480059 2.025857,-0.465849 0.711063,0.0171 1.385966,0.204544 2.003287,0.55458 -0.0128,0.132033 -0.0319,0.262505 -0.0568,0.391588 -0.54988,-0.301496 -1.146471,-0.474559 -1.769742,-0.51524 -0.178374,-0.0114 -0.361697,-0.0114 -0.54012,0 -0.485939,0.0315 -0.953528,0.143813 -1.397196,0.333556 0.120582,0.605351 0.380127,1.192992 0.757244,1.697771 0.188394,0.252765 0.404027,0.482739 0.642772,0.687053 -0.0226,0.146333 -0.0493,0.291885 -0.0794,0.436398 z"
         sodipodi:nodetypes="ccccccccccccc" />
      <path
         id="polyline56-3-5"
         style="vector-effect:non-scaling-stroke;fill:#daa520;fill-opacity:1;stroke:none;stroke-width:1.32377e-06;-inkscape-stroke:hairline"
         d="m 86.793924,57.371331 c -0.178304,-0.0113 -0.361747,-0.0113 -0.54012,0 0.0396,0.250625 0.0685,0.503859 0.0864,0.759724 0.046,0.654812 0.0162,1.323294 -0.0834,1.958656 -0.023,0.146393 -0.0493,0.291745 -0.0795,0.436398 0.111132,0.0796 0.226825,0.154223 0.346607,0.223304 0.119842,-0.0691 0.235844,-0.143873 0.346616,-0.223304 -0.0301,-0.144783 -0.0566,-0.289825 -0.0794,-0.436398 -0.005,-0.0322 -0.01,-0.0646 -0.0146,-0.097 -0.0841,-0.57856 -0.110292,-1.183801 -0.0743,-1.779452 -0.0591,-0.003 -0.118552,-0.004 -0.178333,-0.004 v -0.423338 c 0.0718,-2e-4 0.143042,0.002 0.213964,0.005 0.0155,-0.140793 0.0342,-0.280855 0.0561,-0.420168 z"
         sodipodi:nodetypes="cccccccccccccc" />
      <path
         id="polyline72-6-6"
         style="vector-effect:non-scaling-stroke;fill:#4169e1;fill-opacity:1;fill-rule:nonzero;stroke:none;stroke-width:1.32377e-06;-inkscape-stroke:hairline"
         d="m 86.702192,58.213247 c 0.436348,0.0188 0.857856,0.102971 1.261733,0.248714 -0.0275,0.0678 -0.0565,0.134433 -0.0875,0.200734 -0.257184,0.55115 -0.631121,1.039489 -1.085349,1.427196 0.0227,0.146353 0.0493,0.291755 0.0794,0.436388 0.491529,-0.352397 0.898016,-0.798945 1.204232,-1.328404 0.171963,-0.298536 0.304506,-0.611972 0.398467,-0.935768 v -4e-4 c -0.5412,-0.279895 -1.12453,-0.438258 -1.734461,-0.470038 h -8.8e-4 m 0,0 c -0.0708,-0.004 -0.142243,-0.005 -0.213964,-0.005 v 0 0.423338 0 c 0.0597,-2e-5 0.119132,0.001 0.178333,0.004"
         sodipodi:nodetypes="cccccccccccccccc" />
      <path
         id="polyline18-4-9"
         style="vector-effect:non-scaling-stroke;fill:#daa520;fill-opacity:1;stroke:none;stroke-width:1.32377e-06;-inkscape-stroke:hairline"
         d="m 88.640567,57.083286 c -0.55087,-0.317276 -1.149651,-0.502199 -1.777682,-0.5537 -0.720733,-0.057 -1.427956,0.069 -2.069958,0.356486 -0.131382,0.059 -0.259605,0.124283 -0.385767,0.197214 1.6e-4,0.138802 0.007,0.276005 0.0201,0.411697 0.0874,-0.0497 0.175634,-0.096 0.265295,-0.139002 0.638102,-0.305206 1.336265,-0.448298 2.060088,-0.410458 0.661002,0.037 1.289914,0.221304 1.867814,0.54946 0.0134,-0.135662 0.0201,-0.272885 0.0201,-0.411697 z"
         sodipodi:nodetypes="ccccccccc" />
      <path
         id="path93584"
         style="vector-effect:non-scaling-stroke;fill:#4169e1;fill-opacity:1;stroke:none;stroke-width:1.32377e-06;stroke-opacity:1;-inkscape-stroke:hairline"
         d="m 86.177252,60.526109 c -0.306895,-0.219674 -0.57981,-0.476299 -0.817225,-0.767134 -0.528529,-0.647482 -0.854605,-1.444327 -0.932767,-2.263992 0.0543,-0.0308 0.108952,-0.0605 0.164053,-0.0887 0.627372,-0.320246 1.309204,-0.480059 2.025857,-0.465849 0.711063,0.0171 1.385966,0.204544 2.003287,0.55458 -0.0128,0.132033 -0.0319,0.262505 -0.0568,0.391588 -0.54988,-0.301496 -1.146471,-0.474559 -1.769742,-0.51524 -0.178374,-0.0114 -0.361697,-0.0114 -0.54012,0 -0.485939,0.0315 -0.953528,0.143813 -1.397196,0.333556 0.120582,0.605351 0.380127,1.192992 0.757244,1.697771 0.188394,0.252765 0.404027,0.482739 0.642772,0.687053 -0.0226,0.146333 -0.0493,0.291885 -0.0794,0.436398 z"
         sodipodi:nodetypes="ccccccccccccc" />
      <path
         id="path93586"
         style="vector-effect:non-scaling-stroke;fill:#daa520;fill-opacity:1;stroke:none;stroke-width:1.32377e-06;-inkscape-stroke:hairline"
         d="m 86.793924,57.371331 c -0.178304,-0.0113 -0.361747,-0.0113 -0.54012,0 0.0396,0.250625 0.0685,0.503859 0.0864,0.759724 0.046,0.654812 0.0162,1.323294 -0.0834,1.958656 -0.023,0.146393 -0.0493,0.291745 -0.0795,0.436398 0.111132,0.0796 0.226825,0.154223 0.346607,0.223304 0.119842,-0.0691 0.235844,-0.143873 0.346616,-0.223304 -0.0301,-0.144783 -0.0566,-0.289825 -0.0794,-0.436398 -0.005,-0.0322 -0.01,-0.0646 -0.0146,-0.097 -0.0841,-0.57856 -0.110292,-1.183801 -0.0743,-1.779452 -0.0591,-0.003 -0.118552,-0.004 -0.178333,-0.004 v -0.423338 c 0.0718,-2e-4 0.143042,0.002 0.213964,0.005 0.0155,-0.140793 0.0342,-0.280855 0.0561,-0.420168 z"
         sodipodi:nodetypes="cccccccccccccc" />
      <path
         id="path93588"
         style="vector-effect:non-scaling-stroke;fill:#4169e1;fill-opacity:1;fill-rule:nonzero;stroke:none;stroke-width:1.32377e-06;-inkscape-stroke:hairline"
         d="m 86.702192,58.213247 c 0.436348,0.0188 0.857856,0.102971 1.261733,0.248714 -0.0275,0.0678 -0.0565,0.134433 -0.0875,0.200734 -0.257184,0.55115 -0.631121,1.039489 -1.085349,1.427196 0.0227,0.146353 0.0493,0.291755 0.0794,0.436388 0.491529,-0.352397 0.898016,-0.798945 1.204232,-1.328404 0.171963,-0.298536 0.304506,-0.611972 0.398467,-0.935768 v -4e-4 c -0.5412,-0.279895 -1.12453,-0.438258 -1.734461,-0.470038 h -8.8e-4 m 0,0 c -0.0708,-0.004 -0.142243,-0.005 -0.213964,-0.005 v 0 0.423338 0 c 0.0597,-2e-5 0.119132,0.001 0.178333,0.004"
         sodipodi:nodetypes="cccccccccccccccc" />
      <path
         id="path93590"
         style="vector-effect:non-scaling-stroke;fill:#daa520;fill-opacity:1;stroke:none;stroke-width:1.32377e-06;-inkscape-stroke:hairline"
         d="m 88.640567,57.083286 c -1.086829,-0.635972 -2.461825,-0.744034 -3.634706,-0.285735 -0.206634,0.0794 -0.407038,0.175003 -0.598701,0.285735 0.01,0.124932 -0.012,0.324926 0.0365,0.402417 1.079119,-0.616711 2.433654,-0.717313 3.592115,-0.267175 0.201524,0.0772 0.397058,0.169894 0.584681,0.276455 0.0135,-0.136792 0.0201,-0.274255 0.0201,-0.411697 z"
         sodipodi:nodetypes="ccccccccc" />
      <path
         id="path94081"
         style="fill:none;fill-opacity:1;stroke:#222222;stroke-width:0.0500953;stroke-linecap:butt;stroke-linejoin:round;stroke-miterlimit:4;stroke-dasharray:none;stroke-opacity:1"
         d="m 88.640497,57.082566 c -0.55087,-0.317276 -1.149651,-0.502199 -1.777682,-0.5537 -0.720733,-0.057 -1.427956,0.069 -2.069958,0.356486 -0.131382,0.059 -0.259605,0.124283 -0.385767,0.197214 1.6e-4,0.138802 0.007,0.276005 0.0201,0.411697 0.0874,-0.0497 0.175634,-0.096 0.265295,-0.139002 0.638102,-0.305206 1.336265,-0.448298 2.060088,-0.410458 0.661002,0.037 1.289914,0.221304 1.867814,0.54946 0.0134,-0.135662 0.0201,-0.272885 0.0201,-0.411697 z m -1.938375,1.129961 c 0.436348,0.0188 0.857856,0.102971 1.261733,0.248714 -0.0275,0.0678 -0.0565,0.134433 -0.0875,0.200734 -0.257184,0.55115 -0.631121,1.039489 -1.085349,1.427186 0.0227,0.146353 0.0493,0.291765 0.0794,0.436398 0.491529,-0.352397 0.898016,-0.798945 1.204232,-1.328414 0.171963,-0.298526 0.304506,-0.611962 0.398467,-0.935758 v -4e-4 c -0.5412,-0.279895 -1.12453,-0.438258 -1.734461,-0.470038 h -8.8e-4 m 0,0 c -0.0708,-0.004 -0.142243,-0.005 -0.213964,-0.005 v 0 0.423338 0 c 0.0597,-2e-5 0.119132,10e-4 0.178333,0.004 m 0.0917,-0.841916 c -0.178304,-0.0113 -0.361747,-0.0113 -0.54012,0 0.0396,0.250625 0.0685,0.503859 0.0864,0.759714 0.046,0.654822 0.0162,1.323304 -0.0834,1.958666 -0.023,0.146393 -0.0493,0.291745 -0.0795,0.436388 0.111132,0.0796 0.226825,0.154223 0.346607,0.223314 0.119842,-0.0691 0.235844,-0.143883 0.346616,-0.223314 -0.0301,-0.144773 -0.0566,-0.289815 -0.0794,-0.436388 -0.005,-0.0322 -0.01,-0.0646 -0.0146,-0.097 -0.0841,-0.57855 -0.110292,-1.183791 -0.0743,-1.779442 -0.0591,-0.003 -0.118552,-0.004 -0.178333,-0.004 v -0.423338 c 0.0718,-2e-4 0.143042,0.002 0.213964,0.005 0.0155,-0.140793 0.0342,-0.280855 0.0561,-0.420168 z m -0.616672,3.154768 c -0.306895,-0.219664 -0.57981,-0.476299 -0.817225,-0.767124 -0.528529,-0.647482 -0.854605,-1.444327 -0.932767,-2.263992 0.0543,-0.0308 0.108952,-0.0605 0.164053,-0.0887 0.627372,-0.320246 1.309204,-0.480059 2.025857,-0.465849 0.711063,0.0171 1.385966,0.204544 2.003287,0.55458 -0.0128,0.132033 -0.0319,0.262505 -0.0568,0.391588 -0.54988,-0.301496 -1.146471,-0.474559 -1.769742,-0.51524 -0.178374,-0.0114 -0.361697,-0.0114 -0.54012,0 -0.485939,0.0315 -0.953528,0.143813 -1.397196,0.333556 0.120582,0.605351 0.380127,1.192992 0.757244,1.697771 0.188394,0.252765 0.404027,0.482739 0.642772,0.687053 -0.0226,0.146333 -0.0493,0.291885 -0.0794,0.436388 z m 2.463315,-3.442813 c -0.55087,-0.317276 -1.149651,-0.502199 -1.777682,-0.5537 -0.720733,-0.057 -1.427956,0.069 -2.069958,0.356486 -0.131382,0.059 -0.259605,0.124283 -0.385767,0.197214 1.6e-4,0.138802 0.007,0.276005 0.0201,0.411697 0.0874,-0.0497 0.175634,-0.096 0.265295,-0.139002 0.638102,-0.305206 1.336265,-0.448298 2.060088,-0.410458 0.661002,0.037 1.289914,0.221304 1.867814,0.54946 0.0134,-0.135662 0.0201,-0.272885 0.0201,-0.411697 z m -1.938375,1.129961 c 0.436348,0.0188 0.857856,0.102971 1.261733,0.248714 -0.0275,0.0678 -0.0565,0.134433 -0.0875,0.200734 -0.257184,0.55115 -0.631121,1.039489 -1.085349,1.427186 0.0227,0.146353 0.0493,0.291765 0.0794,0.436398 0.491529,-0.352397 0.898016,-0.798945 1.204232,-1.328414 0.171963,-0.298526 0.304506,-0.611962 0.398467,-0.935758 v -4e-4 c -0.5412,-0.279895 -1.12453,-0.438258 -1.734461,-0.470038 h -8.8e-4 m 0,0 c -0.0708,-0.004 -0.142243,-0.005 -0.213964,-0.005 v 0 0.423338 0 c 0.0597,-2e-5 0.119132,10e-4 0.178333,0.004 m 0.0917,-0.841916 c -0.178304,-0.0113 -0.361747,-0.0113 -0.54012,0 0.0396,0.250625 0.0685,0.503859 0.0864,0.759714 0.046,0.654822 0.0162,1.323304 -0.0834,1.958666 -0.023,0.146393 -0.0493,0.291745 -0.0795,0.436388 0.111132,0.0796 0.226825,0.154223 0.346607,0.223314 0.119842,-0.0691 0.235844,-0.143883 0.346616,-0.223314 -0.0301,-0.144773 -0.0566,-0.289815 -0.0794,-0.436388 -0.005,-0.0322 -0.01,-0.0646 -0.0146,-0.097 -0.0841,-0.57855 -0.110292,-1.183791 -0.0743,-1.779442 -0.0591,-0.003 -0.118552,-0.004 -0.178333,-0.004 v -0.423338 c 0.0718,-2e-4 0.143042,0.002 0.213964,0.005 0.0155,-0.140793 0.0342,-0.280855 0.0561,-0.420168 z M 86.17714,60.526899 C 85.870245,60.307235 85.59733,60.0506 85.359915,59.759775 84.831386,59.112293 84.50531,58.315448 84.427148,57.495783 c 0.0543,-0.0308 0.108952,-0.0605 0.164053,-0.0887 0.627372,-0.320246 1.309204,-0.480059 2.025857,-0.465849 0.711063,0.0171 1.385966,0.204544 2.003287,0.55458 -0.0128,0.132033 -0.0319,0.262505 -0.0568,0.391588 -0.54988,-0.301496 -1.146471,-0.474559 -1.769742,-0.51524 -0.178374,-0.0114 -0.361697,-0.0114 -0.54012,0 -0.485939,0.0315 -0.953528,0.143813 -1.397196,0.333556 0.120582,0.605351 0.380127,1.192992 0.757244,1.697771 0.188394,0.252765 0.404027,0.482739 0.642772,0.687053 -0.0226,0.146333 -0.0493,0.291885 -0.0794,0.436388 z" />
    </g>
  </g>
</svg>
