<?xml version="1.0" encoding="UTF-8" standalone="no"?>
<!-- Created with Inkscape (http://www.inkscape.org/) -->

<svg
   width="71.764282mm"
   height="12.146mm"
   viewBox="0 0 71.764283 12.146"
   version="1.1"
   id="svg43602"
   inkscape:version="1.1.2 (0a00cf5339, 2022-02-04)"
   sodipodi:docname="logo-lungo.svg"
   xmlns:inkscape="http://www.inkscape.org/namespaces/inkscape"
   xmlns:sodipodi="http://sodipodi.sourceforge.net/DTD/sodipodi-0.dtd"
   xmlns="http://www.w3.org/2000/svg"
   xmlns:svg="http://www.w3.org/2000/svg">
  <sodipodi:namedview
     id="namedview43604"
     pagecolor="#ffffff"
     bordercolor="#666666"
     borderopacity="1.0"
     inkscape:pageshadow="2"
     inkscape:pageopacity="0.0"
     inkscape:pagecheckerboard="true"
     inkscape:document-units="mm"
     showgrid="false"
     fit-margin-top="0"
     fit-margin-left="0"
     fit-margin-right="0"
     fit-margin-bottom="0"
     inkscape:showpageshadow="false"
     showborder="false"
     inkscape:zoom="5.4627372"
     inkscape:cx="21.87548"
     inkscape:cy="13.271735"
     inkscape:window-width="1364"
     inkscape:window-height="716"
     inkscape:window-x="0"
     inkscape:window-y="21"
     inkscape:window-maximized="1"
     inkscape:current-layer="layer1" />
  <defs
     id="defs43599" />
  <g
     inkscape:label="Livello 1"
     inkscape:groupmode="layer"
     id="layer1"
     transform="translate(-92.552152,-162.79674)">
    <g
       id="g43455"
       transform="matrix(2.8346978,0,0,2.8346978,-192.69981,-121.98547)">
      <path
         id="path7139"
         style="vector-effect:non-scaling-stroke;fill:#4169e1;fill-opacity:1;stroke:none;stroke-width:1.32375e-06;stroke-opacity:1;-inkscape-stroke:hairline"
         d="m 102.4239,104.4986 c -0.30689,-0.21967 -0.5798,-0.47629 -0.81721,-0.76712 -0.52852,-0.64747 -0.85459,-1.4443 -0.93275,-2.26395 0.0543,-0.0308 0.10895,-0.0605 0.16405,-0.0887 0.62736,-0.32024 1.30918,-0.48005 2.02582,-0.46584 0.71105,0.0171 1.38594,0.20454 2.00325,0.55457 -0.0128,0.13203 -0.0319,0.2625 -0.0568,0.39158 -0.54987,-0.30149 -1.14645,-0.47455 -1.76971,-0.51523 -0.17837,-0.0114 -0.36169,-0.0114 -0.54011,0 -0.48593,0.0315 -0.95351,0.14381 -1.39717,0.33355 0.12058,0.60534 0.38012,1.19297 0.75723,1.69774 0.18839,0.25276 0.40402,0.48273 0.64276,0.68704 -0.0226,0.14633 -0.0493,0.29188 -0.0794,0.43639 z"
         sodipodi:nodetypes="ccccccccccccc" />
      <path
         id="path7141"
         style="vector-effect:non-scaling-stroke;fill:#daa520;fill-opacity:1;stroke:none;stroke-width:1.32375e-06;-inkscape-stroke:hairline"
         d="m 103.04056,101.34388 c -0.1783,-0.0113 -0.36174,-0.0113 -0.54011,0 0.0396,0.25062 0.0685,0.50385 0.0864,0.75971 0.046,0.6548 0.0162,1.32327 -0.0834,1.95862 -0.023,0.14639 -0.0493,0.29174 -0.0795,0.43639 0.11113,0.0796 0.22682,0.15422 0.3466,0.2233 0.11984,-0.0691 0.23584,-0.14387 0.34661,-0.2233 -0.0301,-0.14478 -0.0566,-0.28982 -0.0794,-0.43639 -0.005,-0.0322 -0.01,-0.0646 -0.0146,-0.097 -0.0841,-0.57855 -0.11029,-1.18378 -0.0743,-1.77942 -0.0591,-0.003 -0.11855,-0.004 -0.17833,-0.004 v -0.42333 c 0.0718,-2e-4 0.14304,0.002 0.21396,0.005 0.0155,-0.14079 0.0342,-0.28085 0.0561,-0.42016 z"
         sodipodi:nodetypes="cccccccccccccc" />
      <path
         id="path7143"
         style="vector-effect:non-scaling-stroke;fill:#4169e1;fill-opacity:1;fill-rule:nonzero;stroke:none;stroke-width:1.32375e-06;-inkscape-stroke:hairline"
         d="m 102.94883,102.18578 c 0.43634,0.0188 0.85784,0.10297 1.26171,0.24871 -0.0275,0.0678 -0.0565,0.13443 -0.0875,0.20073 -0.25718,0.55114 -0.63111,1.03947 -1.08533,1.42717 0.0227,0.14635 0.0493,0.29175 0.0794,0.43638 0.49152,-0.35239 0.898,-0.79893 1.20421,-1.32838 0.17196,-0.29853 0.3045,-0.61196 0.39846,-0.93575 v -4e-4 c -0.54119,-0.27989 -1.12451,-0.43825 -1.73443,-0.47003 h -8.8e-4 m 0,0 c -0.0708,-0.004 -0.14224,-0.005 -0.21396,-0.005 v 0 0.42333 0 c 0.0597,-2e-5 0.11913,10e-4 0.17833,0.004"
         sodipodi:nodetypes="cccccccccccccccc" />
      <path
         id="path7145"
         style="vector-effect:non-scaling-stroke;fill:#daa520;fill-opacity:1;stroke:none;stroke-width:1.32375e-06;-inkscape-stroke:hairline"
         d="m 104.88717,101.05584 c -0.55086,-0.31727 -1.14963,-0.50219 -1.77765,-0.55369 -0.72072,-0.057 -1.42793,0.069 -2.06992,0.35648 -0.13138,0.059 -0.2596,0.12428 -0.38576,0.19721 1.6e-4,0.1388 0.007,0.276 0.0201,0.41169 0.0874,-0.0497 0.17563,-0.096 0.26529,-0.139 0.63809,-0.3052 1.33624,-0.44829 2.06005,-0.41045 0.66099,0.037 1.28989,0.2213 1.86778,0.54945 0.0134,-0.13566 0.0201,-0.27288 0.0201,-0.41169 z"
         sodipodi:nodetypes="ccccccccc" />
      <path
         id="path7179"
         style="vector-effect:non-scaling-stroke;fill:#4169e1;fill-opacity:1;stroke:none;stroke-width:1.32375e-06;stroke-opacity:1;-inkscape-stroke:hairline"
         d="m 102.4239,104.4986 c -0.30689,-0.21967 -0.5798,-0.47629 -0.81721,-0.76712 -0.52852,-0.64747 -0.85459,-1.4443 -0.93275,-2.26395 0.0543,-0.0308 0.10895,-0.0605 0.16405,-0.0887 0.62736,-0.32024 1.30918,-0.48005 2.02582,-0.46584 0.71105,0.0171 1.38594,0.20454 2.00325,0.55457 -0.0128,0.13203 -0.0319,0.2625 -0.0568,0.39158 -0.54987,-0.30149 -1.14645,-0.47455 -1.76971,-0.51523 -0.17837,-0.0114 -0.36169,-0.0114 -0.54011,0 -0.48593,0.0315 -0.95351,0.14381 -1.39717,0.33355 0.12058,0.60534 0.38012,1.19297 0.75723,1.69774 0.18839,0.25276 0.40402,0.48273 0.64276,0.68704 -0.0226,0.14633 -0.0493,0.29188 -0.0794,0.43639 z"
         sodipodi:nodetypes="ccccccccccccc" />
      <path
         id="path7181"
         style="vector-effect:non-scaling-stroke;fill:#daa520;fill-opacity:1;stroke:none;stroke-width:1.32375e-06;-inkscape-stroke:hairline"
         d="m 103.04056,101.34388 c -0.1783,-0.0113 -0.36174,-0.0113 -0.54011,0 0.0396,0.25062 0.0685,0.50385 0.0864,0.75971 0.046,0.6548 0.0162,1.32327 -0.0834,1.95862 -0.023,0.14639 -0.0493,0.29174 -0.0795,0.43639 0.11113,0.0796 0.22682,0.15422 0.3466,0.2233 0.11984,-0.0691 0.23584,-0.14387 0.34661,-0.2233 -0.0301,-0.14478 -0.0566,-0.28982 -0.0794,-0.43639 -0.005,-0.0322 -0.01,-0.0646 -0.0146,-0.097 -0.0841,-0.57855 -0.11029,-1.18378 -0.0743,-1.77942 -0.0591,-0.003 -0.11855,-0.004 -0.17833,-0.004 v -0.42333 c 0.0718,-2e-4 0.14304,0.002 0.21396,0.005 0.0155,-0.14079 0.0342,-0.28085 0.0561,-0.42016 z"
         sodipodi:nodetypes="cccccccccccccc" />
      <path
         id="path7183"
         style="vector-effect:non-scaling-stroke;fill:#4169e1;fill-opacity:1;fill-rule:nonzero;stroke:none;stroke-width:1.32375e-06;-inkscape-stroke:hairline"
         d="m 102.94883,102.18578 c 0.43634,0.0188 0.85784,0.10297 1.26171,0.24871 -0.0275,0.0678 -0.0565,0.13443 -0.0875,0.20073 -0.25718,0.55114 -0.63111,1.03947 -1.08533,1.42717 0.0227,0.14635 0.0493,0.29175 0.0794,0.43638 0.49152,-0.35239 0.898,-0.79893 1.20421,-1.32838 0.17196,-0.29853 0.3045,-0.61196 0.39846,-0.93575 v -4e-4 c -0.54119,-0.27989 -1.12451,-0.43825 -1.73443,-0.47003 h -8.8e-4 m 0,0 c -0.0708,-0.004 -0.14224,-0.005 -0.21396,-0.005 v 0 0.42333 0 c 0.0597,-2e-5 0.11913,10e-4 0.17833,0.004"
         sodipodi:nodetypes="cccccccccccccccc" />
      <path
         id="path7185"
         style="vector-effect:non-scaling-stroke;fill:#daa520;fill-opacity:1;stroke:none;stroke-width:1.32375e-06;-inkscape-stroke:hairline"
         d="m 104.88717,101.05584 c -1.08681,-0.63596 -2.46178,-0.74402 -3.63464,-0.28573 -0.20663,0.0794 -0.40703,0.175 -0.59869,0.28573 0.01,0.12493 -0.012,0.32492 0.0365,0.40241 1.0791,-0.6167 2.43361,-0.7173 3.59205,-0.26717 0.20152,0.0772 0.39705,0.16989 0.58467,0.27645 0.0135,-0.13679 0.0201,-0.27425 0.0201,-0.41169 z"
         sodipodi:nodetypes="ccccccccc" />
      <path
         id="path7187"
         style="fill:none;fill-opacity:1;stroke:#222222;stroke-width:0.0500944;stroke-linecap:butt;stroke-linejoin:round;stroke-miterlimit:4;stroke-dasharray:none;stroke-opacity:1"
         d="m 104.8871,101.05512 c -0.55086,-0.31727 -1.14963,-0.50219 -1.77765,-0.55369 -0.72072,-0.057 -1.42793,0.069 -2.06992,0.35648 -0.13138,0.059 -0.2596,0.12428 -0.38576,0.19721 1.6e-4,0.1388 0.007,0.276 0.0201,0.41169 0.0874,-0.0497 0.17563,-0.096 0.26529,-0.139 0.63809,-0.3052 1.33624,-0.44829 2.06005,-0.41045 0.66099,0.037 1.28989,0.2213 1.86778,0.54945 0.0134,-0.13566 0.0201,-0.27288 0.0201,-0.41169 z m -1.93834,1.12994 c 0.43634,0.0188 0.85784,0.10297 1.26171,0.24871 -0.0275,0.0678 -0.0565,0.13443 -0.0875,0.20073 -0.25718,0.55114 -0.63111,1.03947 -1.08533,1.42716 0.0227,0.14635 0.0493,0.29176 0.0794,0.43639 0.49152,-0.35239 0.898,-0.79893 1.20421,-1.32839 0.17196,-0.29852 0.3045,-0.61195 0.39846,-0.93574 v -4e-4 c -0.54119,-0.27989 -1.12451,-0.43825 -1.73443,-0.47003 h -8.8e-4 m 0,0 c -0.0708,-0.004 -0.14224,-0.005 -0.21396,-0.005 v 0 0.42333 0 c 0.0597,-2e-5 0.11913,0.001 0.17833,0.004 m 0.0917,-0.8419 c -0.1783,-0.0113 -0.36174,-0.0113 -0.54011,0 0.0396,0.25062 0.0685,0.50385 0.0864,0.7597 0.046,0.65481 0.0162,1.32328 -0.0834,1.95863 -0.023,0.14639 -0.0493,0.29174 -0.0795,0.43638 0.11113,0.0796 0.22682,0.15422 0.3466,0.22331 0.11984,-0.0691 0.23584,-0.14388 0.34661,-0.22331 -0.0301,-0.14477 -0.0566,-0.28981 -0.0794,-0.43638 -0.005,-0.0322 -0.01,-0.0646 -0.0146,-0.097 -0.0841,-0.57854 -0.11029,-1.18377 -0.0743,-1.77941 -0.0591,-0.003 -0.11855,-0.004 -0.17833,-0.004 v -0.42333 c 0.0718,-2e-4 0.14304,0.002 0.21396,0.005 0.0155,-0.14079 0.0342,-0.28085 0.0561,-0.42016 z m -0.61666,3.15471 c -0.30689,-0.21966 -0.5798,-0.47629 -0.81721,-0.76711 -0.52852,-0.64747 -0.85459,-1.4443 -0.93275,-2.26395 0.0543,-0.0308 0.10895,-0.0605 0.16405,-0.0887 0.62736,-0.32024 1.30918,-0.48005 2.02582,-0.46584 0.71105,0.0171 1.38594,0.20454 2.00325,0.55457 -0.0128,0.13203 -0.0319,0.2625 -0.0568,0.39158 -0.54987,-0.30149 -1.14645,-0.47455 -1.76971,-0.51523 -0.17837,-0.0114 -0.36169,-0.0114 -0.54011,0 -0.48593,0.0315 -0.95351,0.14381 -1.39717,0.33355 0.12058,0.60534 0.38012,1.19297 0.75723,1.69774 0.18839,0.25276 0.40402,0.48273 0.64276,0.68704 -0.0226,0.14633 -0.0493,0.29188 -0.0794,0.43638 z m 2.46327,-3.44275 c -0.55086,-0.31727 -1.14963,-0.50219 -1.77765,-0.55369 -0.72072,-0.057 -1.42793,0.069 -2.06992,0.35648 -0.13138,0.059 -0.2596,0.12428 -0.38576,0.19721 1.6e-4,0.1388 0.007,0.276 0.0201,0.41169 0.0874,-0.0497 0.17563,-0.096 0.26529,-0.139 0.63809,-0.3052 1.33624,-0.44829 2.06005,-0.41045 0.66099,0.037 1.28989,0.2213 1.86778,0.54945 0.0134,-0.13566 0.0201,-0.27288 0.0201,-0.41169 z m -1.93834,1.12994 c 0.43634,0.0188 0.85784,0.10297 1.26171,0.24871 -0.0275,0.0678 -0.0565,0.13443 -0.0875,0.20073 -0.25718,0.55114 -0.63111,1.03947 -1.08533,1.42716 0.0227,0.14635 0.0493,0.29176 0.0794,0.43639 0.49152,-0.35239 0.898,-0.79893 1.20421,-1.32839 0.17196,-0.29852 0.3045,-0.61195 0.39846,-0.93574 v -4e-4 c -0.54119,-0.27989 -1.12451,-0.43825 -1.73443,-0.47003 h -8.8e-4 m 0,0 c -0.0708,-0.004 -0.14224,-0.005 -0.21396,-0.005 v 0 0.42333 0 c 0.0597,-2e-5 0.11913,0.001 0.17833,0.004 m 0.0917,-0.8419 c -0.1783,-0.0113 -0.36174,-0.0113 -0.54011,0 0.0396,0.25062 0.0685,0.50385 0.0864,0.7597 0.046,0.65481 0.0162,1.32328 -0.0834,1.95863 -0.023,0.14639 -0.0493,0.29174 -0.0795,0.43638 0.11113,0.0796 0.22682,0.15422 0.3466,0.22331 0.11984,-0.0691 0.23584,-0.14388 0.34661,-0.22331 -0.0301,-0.14477 -0.0566,-0.28981 -0.0794,-0.43638 -0.005,-0.0322 -0.01,-0.0646 -0.0146,-0.097 -0.0841,-0.57854 -0.11029,-1.18377 -0.0743,-1.77941 -0.0591,-0.003 -0.11855,-0.004 -0.17833,-0.004 v -0.42333 c 0.0718,-2e-4 0.14304,0.002 0.21396,0.005 0.0155,-0.14079 0.0342,-0.28085 0.0561,-0.42016 z m -0.61666,3.15471 c -0.30689,-0.21966 -0.5798,-0.47629 -0.81721,-0.76711 -0.52852,-0.64747 -0.85459,-1.4443 -0.93275,-2.26395 0.0543,-0.0308 0.10895,-0.0605 0.16405,-0.0887 0.62736,-0.32024 1.30918,-0.48005 2.02582,-0.46584 0.71105,0.0171 1.38594,0.20454 2.00325,0.55457 -0.0128,0.13203 -0.0319,0.2625 -0.0568,0.39158 -0.54987,-0.30149 -1.14645,-0.47455 -1.76971,-0.51523 -0.17837,-0.0114 -0.36169,-0.0114 -0.54011,0 -0.48593,0.0315 -0.95351,0.14381 -1.39717,0.33355 0.12058,0.60534 0.38012,1.19297 0.75723,1.69774 0.18839,0.25276 0.40402,0.48273 0.64276,0.68704 -0.0226,0.14633 -0.0493,0.29188 -0.0794,0.43638 z" />
      <g
         aria-label="GAETANO TRIGILIO Chinesiologo e Personal Trainer"
         id="text29530"
         style="font-weight:bold;font-size:1.44979px;line-height:1.25;-inkscape-font-specification:'sans-serif Bold';letter-spacing:0px;word-spacing:0px;fill:#222222;fill-opacity:1;stroke-width:0.181223">
        <path
           d="m 105.88021,101.4686 h 0.41059 v 0.53659 q -0.0998,0.0326 -0.1883,0.0453 -0.0878,0.0135 -0.17981,0.0135 -0.23432,0 -0.3582,-0.13734 -0.12318,-0.13804 -0.12318,-0.39572 0,-0.25059 0.143,-0.39076 0.1437,-0.14016 0.39784,-0.14016 0.15928,0 0.30723,0.0637 l -0.0729,0.17556 q -0.11327,-0.0566 -0.23573,-0.0566 -0.14229,0 -0.22795,0.0956 -0.0857,0.0956 -0.0857,0.25697 0,0.16848 0.0687,0.25768 0.0694,0.0885 0.20105,0.0885 0.0687,0 0.13945,-0.0142 v -0.21591 h -0.19609 z"
           style="font-family:'Open Sans';-inkscape-font-specification:'Open Sans Bold';fill:#222222;fill-opacity:1"
           id="path43114" />
        <path
           d="m 107.17072,102.04979 -0.075,-0.24635 h -0.37732 l -0.075,0.24635 h -0.23644 l 0.36528,-1.03921 h 0.2683 l 0.36669,1.03921 z m -0.12742,-0.43041 q -0.10406,-0.33484 -0.11751,-0.37873 -0.0127,-0.0439 -0.0184,-0.0694 -0.0234,0.0906 -0.13379,0.4481 z"
           style="font-family:'Open Sans';-inkscape-font-specification:'Open Sans Bold';fill:#222222;fill-opacity:1"
           id="path43116" />
        <path
           d="m 108.13348,102.04979 h -0.59606 v -1.03496 h 0.59606 v 0.17981 h -0.37661 v 0.22724 h 0.35041 v 0.17981 h -0.35041 v 0.26688 h 0.37661 z"
           style="font-family:'Open Sans';-inkscape-font-specification:'Open Sans Bold';fill:#222222;fill-opacity:1"
           id="path43118" />
        <path
           d="m 108.74865,102.04979 h -0.21946 v -0.85232 h -0.28103 v -0.18264 h 0.78152 v 0.18264 h -0.28103 z"
           style="font-family:'Open Sans';-inkscape-font-specification:'Open Sans Bold';fill:#222222;fill-opacity:1"
           id="path43120" />
        <path
           d="m 109.82254,102.04979 -0.075,-0.24635 h -0.37731 l -0.075,0.24635 h -0.23644 l 0.36528,-1.03921 h 0.26829 l 0.3667,1.03921 z m -0.12743,-0.43041 q -0.10406,-0.33484 -0.11751,-0.37873 -0.0127,-0.0439 -0.0184,-0.0694 -0.0234,0.0906 -0.1338,0.4481 z"
           style="font-family:'Open Sans';-inkscape-font-specification:'Open Sans Bold';fill:#222222;fill-opacity:1"
           id="path43122" />
        <path
           d="m 111.10739,102.04979 h -0.27892 l -0.45023,-0.78294 h -0.006 q 0.0134,0.20741 0.0134,0.2959 v 0.48704 h -0.19609 v -1.03496 h 0.27679 l 0.44952,0.77516 h 0.005 q -0.0106,-0.20175 -0.0106,-0.28529 v -0.48987 h 0.19751 z"
           style="font-family:'Open Sans';-inkscape-font-specification:'Open Sans Bold';fill:#222222;fill-opacity:1"
           id="path43124" />
        <path
           d="m 112.30728,101.53089 q 0,0.25697 -0.12742,0.39502 -0.12742,0.13804 -0.36528,0.13804 -0.23785,0 -0.36528,-0.13804 -0.12742,-0.13805 -0.12742,-0.39643 0,-0.25839 0.12742,-0.3943 0.12813,-0.13663 0.3667,-0.13663 0.23856,0 0.36457,0.13733 0.12671,0.13734 0.12671,0.39501 z m -0.75533,0 q 0,0.17344 0.0658,0.26122 0.0658,0.0878 0.19679,0.0878 0.26264,0 0.26264,-0.349 0,-0.3497 -0.26122,-0.3497 -0.13096,0 -0.19751,0.0885 -0.0665,0.0878 -0.0665,0.26121 z"
           style="font-family:'Open Sans';-inkscape-font-specification:'Open Sans Bold';fill:#222222;fill-opacity:1"
           id="path43126" />
        <path
           d="m 113.29764,102.04979 h -0.21945 v -0.85232 h -0.28103 v -0.18264 h 0.78152 v 0.18264 h -0.28104 z"
           style="font-family:'Open Sans';-inkscape-font-specification:'Open Sans Bold';fill:#222222;fill-opacity:1"
           id="path43128" />
        <path
           d="m 113.95741,101.47426 h 0.0708 q 0.10406,0 0.15362,-0.0347 0.0495,-0.0347 0.0495,-0.10902 0,-0.0736 -0.051,-0.10477 -0.0503,-0.0311 -0.15644,-0.0311 h -0.0666 z m 0,0.17839 v 0.39714 h -0.21945 v -1.03496 h 0.30157 q 0.21096,0 0.31219,0.0772 0.10123,0.0765 0.10123,0.2329 0,0.0913 -0.0503,0.16282 -0.0503,0.0708 -0.14228,0.11114 0.2336,0.349 0.30439,0.45094 h -0.24351 l -0.24706,-0.39714 z"
           style="font-family:'Open Sans';-inkscape-font-specification:'Open Sans Bold';fill:#222222;fill-opacity:1"
           id="path43130" />
        <path
           d="m 114.69505,102.04979 v -1.03496 h 0.21945 v 1.03496 z"
           style="font-family:'Open Sans';-inkscape-font-specification:'Open Sans Bold';fill:#222222;fill-opacity:1"
           id="path43132" />
        <path
           d="m 115.5679,101.4686 h 0.41058 v 0.53659 q -0.0998,0.0326 -0.1883,0.0453 -0.0878,0.0135 -0.17981,0.0135 -0.23432,0 -0.3582,-0.13734 -0.12317,-0.13804 -0.12317,-0.39572 0,-0.25059 0.14299,-0.39076 0.14371,-0.14016 0.39785,-0.14016 0.15927,0 0.30723,0.0637 l -0.0729,0.17556 q -0.11326,-0.0566 -0.23573,-0.0566 -0.14229,0 -0.22795,0.0956 -0.0857,0.0956 -0.0857,0.25697 0,0.16848 0.0687,0.25768 0.0694,0.0885 0.20105,0.0885 0.0687,0 0.13946,-0.0142 v -0.21591 h -0.19609 z"
           style="font-family:'Open Sans';-inkscape-font-specification:'Open Sans Bold';fill:#222222;fill-opacity:1"
           id="path43134" />
        <path
           d="m 116.22483,102.04979 v -1.03496 h 0.21945 v 1.03496 z"
           style="font-family:'Open Sans';-inkscape-font-specification:'Open Sans Bold';fill:#222222;fill-opacity:1"
           id="path43136" />
        <path
           d="m 116.70479,102.04979 v -1.03496 h 0.21945 v 0.85374 h 0.41979 v 0.18122 z"
           style="font-family:'Open Sans';-inkscape-font-specification:'Open Sans Bold';fill:#222222;fill-opacity:1"
           id="path43138" />
        <path
           d="m 117.52384,102.04979 v -1.03496 h 0.21945 v 1.03496 z"
           style="font-family:'Open Sans';-inkscape-font-specification:'Open Sans Bold';fill:#222222;fill-opacity:1"
           id="path43140" />
        <path
           d="m 118.94319,101.53089 q 0,0.25697 -0.12742,0.39502 -0.12743,0.13804 -0.36528,0.13804 -0.23786,0 -0.36528,-0.13804 -0.12743,-0.13805 -0.12743,-0.39643 0,-0.25839 0.12743,-0.3943 0.12813,-0.13663 0.36669,-0.13663 0.23857,0 0.36457,0.13733 0.12672,0.13734 0.12672,0.39501 z m -0.75534,0 q 0,0.17344 0.0658,0.26122 0.0658,0.0878 0.1968,0.0878 0.26263,0 0.26263,-0.349 0,-0.3497 -0.26122,-0.3497 -0.13096,0 -0.1975,0.0885 -0.0666,0.0878 -0.0666,0.26121 z"
           style="font-family:'Open Sans';-inkscape-font-specification:'Open Sans Bold';fill:#222222;fill-opacity:1"
           id="path43142" />
        <path
           d="m 105.94534,102.87919 q -0.19467,0 -0.30652,0.12459 -0.11185,0.12459 -0.11185,0.34121 0,0.22158 0.10548,0.34405 0.10547,0.12246 0.30156,0.12246 0.13026,0 0.23928,-0.0333 v 0.0637 q -0.10265,0.0361 -0.25627,0.0361 -0.21803,0 -0.34333,-0.14088 -0.1253,-0.14087 -0.1253,-0.39359 0,-0.15787 0.0595,-0.27821 0.0602,-0.12034 0.17203,-0.18547 0.11255,-0.0658 0.26121,-0.0658 0.15149,0 0.27113,0.0566 l -0.029,0.0651 q -0.11327,-0.0566 -0.23786,-0.0566 z"
           style="font-weight:300;font-family:'Open Sans';-inkscape-font-specification:'Open Sans Light';fill:#222222;fill-opacity:1"
           id="path43144" />
        <path
           d="m 106.92296,103.86389 v -0.49908 q 0,-0.11609 -0.0489,-0.16848 -0.0488,-0.0531 -0.15149,-0.0531 -0.13804,0 -0.20246,0.0701 -0.0637,0.0694 -0.0637,0.22582 v 0.42475 h -0.0701 v -1.1015 h 0.0701 v 0.35041 l -0.004,0.0984 h 0.005 q 0.0432,-0.0694 0.10902,-0.10052 0.0658,-0.0311 0.16353,-0.0311 0.26192,0 0.26192,0.28104 v 0.50332 z"
           style="font-weight:300;font-family:'Open Sans';-inkscape-font-specification:'Open Sans Light';fill:#222222;fill-opacity:1"
           id="path43146" />
        <path
           d="m 107.3116,103.86389 h -0.0701 v -0.7695 h 0.0701 z m -0.08,-0.98328 q 0,-0.068 0.0446,-0.068 0.022,0 0.034,0.0177 0.0127,0.0177 0.0127,0.0503 0,0.0318 -0.0127,0.0503 -0.012,0.0184 -0.034,0.0184 -0.0446,0 -0.0446,-0.0687 z"
           style="font-weight:300;font-family:'Open Sans';-inkscape-font-specification:'Open Sans Light';fill:#222222;fill-opacity:1"
           id="path43148" />
        <path
           d="m 108.10587,103.86389 v -0.49908 q 0,-0.11609 -0.0489,-0.16848 -0.0488,-0.0531 -0.15149,-0.0531 -0.13804,0 -0.20246,0.0701 -0.0637,0.0694 -0.0637,0.22582 v 0.42475 h -0.0701 v -0.7695 h 0.0595 l 0.0135,0.10548 h 0.004 q 0.075,-0.12034 0.26688,-0.12034 0.26192,0 0.26192,0.28104 v 0.50332 z"
           style="font-weight:300;font-family:'Open Sans';-inkscape-font-specification:'Open Sans Light';fill:#222222;fill-opacity:1"
           id="path43150" />
        <path
           d="m 108.73519,103.87805 q -0.16777,0 -0.26192,-0.10336 -0.0934,-0.10335 -0.0934,-0.28953 0,-0.18406 0.0906,-0.29449 0.0906,-0.11114 0.24423,-0.11114 0.13591,0 0.21449,0.0949 0.0786,0.0949 0.0786,0.25768 v 0.0566 h -0.55429 q 10e-4,0.15857 0.0736,0.2421 0.0729,0.0835 0.20812,0.0835 0.0658,0 0.11539,-0.009 0.0503,-0.009 0.12672,-0.0396 v 0.0637 q -0.0651,0.0283 -0.12035,0.0382 -0.0552,0.0106 -0.12176,0.0106 z m -0.0205,-0.73623 q -0.11115,0 -0.1784,0.0736 -0.0673,0.0729 -0.0786,0.21095 h 0.47571 q 0,-0.13379 -0.058,-0.20883 -0.058,-0.0757 -0.16069,-0.0757 z"
           style="font-weight:300;font-family:'Open Sans';-inkscape-font-specification:'Open Sans Light';fill:#222222;fill-opacity:1"
           id="path43152" />
        <path
           d="m 109.69724,103.66355 q 0,0.10335 -0.0786,0.15928 -0.0786,0.0552 -0.22299,0.0552 -0.15432,0 -0.24493,-0.0474 v -0.0757 q 0.11609,0.0581 0.24493,0.0581 0.11397,0 0.17273,-0.0375 0.0595,-0.0382 0.0595,-0.10123 0,-0.0581 -0.0474,-0.0977 -0.0467,-0.0396 -0.15432,-0.0779 -0.11539,-0.0418 -0.16211,-0.0715 -0.0467,-0.0304 -0.0708,-0.068 -0.0234,-0.0382 -0.0234,-0.0927 0,-0.0864 0.0722,-0.13663 0.0729,-0.0503 0.20317,-0.0503 0.1246,0 0.23644,0.0467 l -0.0262,0.0637 q -0.11326,-0.0467 -0.21025,-0.0467 -0.0941,0 -0.14936,0.0311 -0.0552,0.0311 -0.0552,0.0864 0,0.0602 0.0425,0.0963 0.0432,0.0361 0.16778,0.0807 0.10406,0.0375 0.15149,0.068 0.0474,0.0297 0.0708,0.068 0.0241,0.0382 0.0241,0.0899 z"
           style="font-weight:300;font-family:'Open Sans';-inkscape-font-specification:'Open Sans Light';fill:#222222;fill-opacity:1"
           id="path43154" />
        <path
           d="m 109.96553,103.86389 h -0.0701 v -0.7695 h 0.0701 z m -0.08,-0.98328 q 0,-0.068 0.0446,-0.068 0.0219,0 0.034,0.0177 0.0127,0.0177 0.0127,0.0503 0,0.0318 -0.0127,0.0503 -0.012,0.0184 -0.034,0.0184 -0.0446,0 -0.0446,-0.0687 z"
           style="font-weight:300;font-family:'Open Sans';-inkscape-font-specification:'Open Sans Light';fill:#222222;fill-opacity:1"
           id="path43156" />
        <path
           d="m 110.85962,103.47808 q 0,0.1883 -0.0913,0.29449 -0.0913,0.10548 -0.25202,0.10548 -0.10123,0 -0.17839,-0.0489 -0.0772,-0.0489 -0.11822,-0.14016 -0.0411,-0.0913 -0.0411,-0.21096 0,-0.1883 0.0913,-0.29307 0.0913,-0.10548 0.2506,-0.10548 0.15857,0 0.24848,0.10689 0.0906,0.10619 0.0906,0.29166 z m -0.60738,0 q 0,0.15857 0.0694,0.24777 0.0701,0.0885 0.19751,0.0885 0.12742,0 0.19679,-0.0885 0.0701,-0.0892 0.0701,-0.24777 0,-0.15928 -0.0708,-0.24706 -0.0701,-0.0878 -0.19751,-0.0878 -0.12742,0 -0.1968,0.0878 -0.0687,0.0871 -0.0687,0.24706 z"
           style="font-weight:300;font-family:'Open Sans';-inkscape-font-specification:'Open Sans Light';fill:#222222;fill-opacity:1"
           id="path43158" />
        <path
           d="m 111.14278,103.86389 h -0.0701 v -1.1015 h 0.0701 z"
           style="font-weight:300;font-family:'Open Sans';-inkscape-font-specification:'Open Sans Light';fill:#222222;fill-opacity:1"
           id="path43160" />
        <path
           d="m 112.03686,103.47808 q 0,0.1883 -0.0913,0.29449 -0.0913,0.10548 -0.25202,0.10548 -0.10123,0 -0.17839,-0.0489 -0.0772,-0.0489 -0.11822,-0.14016 -0.0411,-0.0913 -0.0411,-0.21096 0,-0.1883 0.0913,-0.29307 0.0913,-0.10548 0.2506,-0.10548 0.15857,0 0.24847,0.10689 0.0906,0.10619 0.0906,0.29166 z m -0.60738,0 q 0,0.15857 0.0694,0.24777 0.0701,0.0885 0.1975,0.0885 0.12743,0 0.1968,-0.0885 0.0701,-0.0892 0.0701,-0.24777 0,-0.15928 -0.0708,-0.24706 -0.0701,-0.0878 -0.1975,-0.0878 -0.12743,0 -0.1968,0.0878 -0.0687,0.0871 -0.0687,0.24706 z"
           style="font-weight:300;font-family:'Open Sans';-inkscape-font-specification:'Open Sans Light';fill:#222222;fill-opacity:1"
           id="path43162" />
        <path
           d="m 112.85025,103.09439 v 0.0489 l -0.15928,0.01 q 0.0637,0.0793 0.0637,0.17415 0,0.11114 -0.0743,0.18051 -0.0736,0.0687 -0.19821,0.0687 -0.0524,0 -0.0736,-0.004 -0.0418,0.0219 -0.0637,0.0517 -0.0219,0.0297 -0.0219,0.063 0,0.0368 0.0276,0.0538 0.0283,0.017 0.0941,0.017 h 0.1345 q 0.1253,0 0.19184,0.051 0.0665,0.0503 0.0665,0.14937 0,0.12176 -0.0991,0.18759 -0.0984,0.0666 -0.28104,0.0666 -0.14512,0 -0.22511,-0.0559 -0.0793,-0.0559 -0.0793,-0.15574 0,-0.0793 0.0489,-0.13167 0.0496,-0.0524 0.13379,-0.0715 -0.0347,-0.0149 -0.0559,-0.0418 -0.0205,-0.0276 -0.0205,-0.063 0,-0.0772 0.0984,-0.13591 -0.0673,-0.0276 -0.10477,-0.0864 -0.0375,-0.0595 -0.0375,-0.13592 0,-0.11538 0.0729,-0.18476 0.0736,-0.0701 0.19821,-0.0701 0.0757,0 0.11752,0.0149 z m -0.62296,0.89975 q 0,0.15857 0.23573,0.15857 0.30299,0 0.30299,-0.19326 0,-0.0694 -0.0474,-0.10052 -0.0474,-0.0311 -0.15362,-0.0311 h -0.126 q -0.21167,0 -0.21167,0.16636 z m 0.0588,-0.65977 q 0,0.0892 0.0538,0.13875 0.0545,0.0489 0.14512,0.0489 0.0963,0 0.14724,-0.0489 0.0517,-0.0488 0.0517,-0.14158 0,-0.0984 -0.0531,-0.14724 -0.0524,-0.0495 -0.14725,-0.0495 -0.092,0 -0.14512,0.0531 -0.0524,0.0524 -0.0524,0.14653 z"
           style="font-weight:300;font-family:'Open Sans';-inkscape-font-specification:'Open Sans Light';fill:#222222;fill-opacity:1"
           id="path43164" />
        <path
           d="m 113.64452,103.47808 q 0,0.1883 -0.0913,0.29449 -0.0913,0.10548 -0.25202,0.10548 -0.10123,0 -0.17839,-0.0489 -0.0772,-0.0489 -0.11822,-0.14016 -0.0411,-0.0913 -0.0411,-0.21096 0,-0.1883 0.0913,-0.29307 0.0913,-0.10548 0.2506,-0.10548 0.15857,0 0.24848,0.10689 0.0906,0.10619 0.0906,0.29166 z m -0.60738,0 q 0,0.15857 0.0694,0.24777 0.0701,0.0885 0.19751,0.0885 0.12742,0 0.19679,-0.0885 0.0701,-0.0892 0.0701,-0.24777 0,-0.15928 -0.0708,-0.24706 -0.0701,-0.0878 -0.19751,-0.0878 -0.12742,0 -0.1968,0.0878 -0.0687,0.0871 -0.0687,0.24706 z"
           style="font-weight:300;font-family:'Open Sans';-inkscape-font-specification:'Open Sans Light';fill:#222222;fill-opacity:1"
           id="path43166" />
        <path
           d="m 114.54497,103.87805 q -0.16777,0 -0.26192,-0.10336 -0.0935,-0.10335 -0.0935,-0.28953 0,-0.18406 0.0906,-0.29449 0.0906,-0.11114 0.24422,-0.11114 0.13592,0 0.2145,0.0949 0.0786,0.0949 0.0786,0.25768 v 0.0566 h -0.55429 q 10e-4,0.15857 0.0736,0.2421 0.0729,0.0835 0.20812,0.0835 0.0658,0 0.11539,-0.009 0.0503,-0.009 0.12672,-0.0396 v 0.0637 q -0.0651,0.0283 -0.12035,0.0382 -0.0552,0.0106 -0.12176,0.0106 z m -0.0205,-0.73623 q -0.11114,0 -0.17839,0.0736 -0.0673,0.0729 -0.0786,0.21095 h 0.47572 q 0,-0.13379 -0.058,-0.20883 -0.0581,-0.0757 -0.1607,-0.0757 z"
           style="font-weight:300;font-family:'Open Sans';-inkscape-font-specification:'Open Sans Light';fill:#222222;fill-opacity:1"
           id="path43168" />
        <path
           d="m 116.04715,103.12625 q 0,0.15008 -0.10194,0.23007 -0.10194,0.08 -0.28883,0.08 h -0.15998 v 0.42758 h -0.0722 v -1.03496 h 0.25343 q 0.36953,0 0.36953,0.29732 z m -0.55075,0.24777 h 0.14229 q 0.17485,0 0.25272,-0.0573 0.0779,-0.0581 0.0779,-0.1876 0,-0.11963 -0.0736,-0.17697 -0.0736,-0.0581 -0.22795,-0.0581 h -0.17131 z"
           style="font-weight:300;font-family:'Open Sans';-inkscape-font-specification:'Open Sans Light';fill:#222222;fill-opacity:1"
           id="path43170" />
        <path
           d="m 116.56533,103.87805 q -0.16777,0 -0.26192,-0.10336 -0.0934,-0.10335 -0.0934,-0.28953 0,-0.18406 0.0906,-0.29449 0.0906,-0.11114 0.24423,-0.11114 0.13591,0 0.21449,0.0949 0.0786,0.0949 0.0786,0.25768 v 0.0566 h -0.55429 q 10e-4,0.15857 0.0736,0.2421 0.0729,0.0835 0.20812,0.0835 0.0658,0 0.11539,-0.009 0.0503,-0.009 0.12672,-0.0396 v 0.0637 q -0.0651,0.0283 -0.12035,0.0382 -0.0552,0.0106 -0.12176,0.0106 z m -0.0205,-0.73623 q -0.11115,0 -0.1784,0.0736 -0.0673,0.0729 -0.0786,0.21095 h 0.47571 q 0,-0.13379 -0.058,-0.20883 -0.058,-0.0757 -0.16069,-0.0757 z"
           style="font-weight:300;font-family:'Open Sans';-inkscape-font-specification:'Open Sans Light';fill:#222222;fill-opacity:1"
           id="path43172" />
        <path
           d="m 117.35323,103.07953 q 0.0489,0 0.10477,0.01 l -0.0134,0.0673 q -0.0481,-0.012 -0.0998,-0.012 -0.0984,0 -0.1614,0.0835 -0.063,0.0835 -0.063,0.21095 v 0.42475 h -0.0701 v -0.7695 h 0.0595 l 0.007,0.13875 h 0.005 q 0.0474,-0.0849 0.10123,-0.11892 0.0538,-0.0347 0.13025,-0.0347 z"
           style="font-weight:300;font-family:'Open Sans';-inkscape-font-specification:'Open Sans Light';fill:#222222;fill-opacity:1"
           id="path43174" />
        <path
           d="m 118.09158,103.66355 q 0,0.10335 -0.0786,0.15928 -0.0786,0.0552 -0.22299,0.0552 -0.15432,0 -0.24493,-0.0474 v -0.0757 q 0.11609,0.0581 0.24493,0.0581 0.11397,0 0.17273,-0.0375 0.0595,-0.0382 0.0595,-0.10123 0,-0.0581 -0.0474,-0.0977 -0.0467,-0.0396 -0.15432,-0.0779 -0.11539,-0.0418 -0.16211,-0.0715 -0.0467,-0.0304 -0.0708,-0.068 -0.0234,-0.0382 -0.0234,-0.0927 0,-0.0864 0.0722,-0.13663 0.0729,-0.0503 0.20316,-0.0503 0.1246,0 0.23644,0.0467 l -0.0262,0.0637 q -0.11326,-0.0467 -0.21025,-0.0467 -0.0941,0 -0.14936,0.0311 -0.0552,0.0311 -0.0552,0.0864 0,0.0602 0.0425,0.0963 0.0432,0.0361 0.16778,0.0807 0.10406,0.0375 0.15149,0.068 0.0474,0.0297 0.0708,0.068 0.0241,0.0382 0.0241,0.0899 z"
           style="font-weight:300;font-family:'Open Sans';-inkscape-font-specification:'Open Sans Light';fill:#222222;fill-opacity:1"
           id="path43176" />
        <path
           d="m 118.9262,103.47808 q 0,0.1883 -0.0913,0.29449 -0.0913,0.10548 -0.25201,0.10548 -0.10124,0 -0.1784,-0.0489 -0.0772,-0.0489 -0.11822,-0.14016 -0.0411,-0.0913 -0.0411,-0.21096 0,-0.1883 0.0913,-0.29307 0.0913,-0.10548 0.2506,-0.10548 0.15857,0 0.24848,0.10689 0.0906,0.10619 0.0906,0.29166 z m -0.60738,0 q 0,0.15857 0.0694,0.24777 0.0701,0.0885 0.19751,0.0885 0.12742,0 0.19679,-0.0885 0.0701,-0.0892 0.0701,-0.24777 0,-0.15928 -0.0708,-0.24706 -0.0701,-0.0878 -0.19751,-0.0878 -0.12742,0 -0.1968,0.0878 -0.0687,0.0871 -0.0687,0.24706 z"
           style="font-weight:300;font-family:'Open Sans';-inkscape-font-specification:'Open Sans Light';fill:#222222;fill-opacity:1"
           id="path43178" />
        <path
           d="m 119.67587,103.86389 v -0.49908 q 0,-0.11609 -0.0488,-0.16848 -0.0489,-0.0531 -0.1515,-0.0531 -0.13804,0 -0.20246,0.0701 -0.0637,0.0694 -0.0637,0.22582 v 0.42475 h -0.0701 v -0.7695 h 0.0595 l 0.0135,0.10548 h 0.004 q 0.075,-0.12034 0.26688,-0.12034 0.26193,0 0.26193,0.28104 v 0.50332 z"
           style="font-weight:300;font-family:'Open Sans';-inkscape-font-specification:'Open Sans Light';fill:#222222;fill-opacity:1"
           id="path43180" />
        <path
           d="m 120.46165,103.86389 -0.0177,-0.12176 h -0.006 q -0.058,0.0743 -0.11963,0.10548 -0.0609,0.0304 -0.14441,0.0304 -0.11327,0 -0.17627,-0.0581 -0.063,-0.058 -0.063,-0.1607 0,-0.11255 0.0934,-0.17485 0.0941,-0.0623 0.27183,-0.0658 l 0.14654,-0.004 v -0.051 q 0,-0.10973 -0.0446,-0.16565 -0.0446,-0.0559 -0.1437,-0.0559 -0.1069,0 -0.22158,0.0595 l -0.0262,-0.0609 q 0.12671,-0.0595 0.2506,-0.0595 0.12671,0 0.18901,0.0658 0.063,0.0658 0.063,0.20529 v 0.51182 z m -0.28317,-0.0496 q 0.12318,0 0.19397,-0.0701 0.0715,-0.0708 0.0715,-0.19609 v -0.0757 l -0.1345,0.006 q -0.16211,0.008 -0.23149,0.051 -0.0687,0.0425 -0.0687,0.13308 0,0.0722 0.0439,0.11256 0.0446,0.0396 0.1253,0.0396 z"
           style="font-weight:300;font-family:'Open Sans';-inkscape-font-specification:'Open Sans Light';fill:#222222;fill-opacity:1"
           id="path43182" />
        <path
           d="m 120.83259,103.86389 h -0.0701 v -1.1015 h 0.0701 z"
           style="font-weight:300;font-family:'Open Sans';-inkscape-font-specification:'Open Sans Light';fill:#222222;fill-opacity:1"
           id="path43184" />
        <path
           d="m 121.75428,103.86389 h -0.0729 v -0.967 h -0.33626 v -0.068 h 0.74543 v 0.068 h -0.33626 z"
           style="font-weight:300;font-family:'Open Sans';-inkscape-font-specification:'Open Sans Light';fill:#222222;fill-opacity:1"
           id="path43186" />
        <path
           d="m 122.52944,103.07953 q 0.0488,0 0.10477,0.01 l -0.0134,0.0673 q -0.0481,-0.012 -0.0998,-0.012 -0.0984,0 -0.1614,0.0835 -0.063,0.0835 -0.063,0.21095 v 0.42475 h -0.0701 v -0.7695 h 0.0595 l 0.007,0.13875 h 0.005 q 0.0474,-0.0849 0.10123,-0.11892 0.0538,-0.0347 0.13026,-0.0347 z"
           style="font-weight:300;font-family:'Open Sans';-inkscape-font-specification:'Open Sans Light';fill:#222222;fill-opacity:1"
           id="path43188" />
        <path
           d="m 123.25787,103.86389 -0.0177,-0.12176 h -0.006 q -0.058,0.0743 -0.11963,0.10548 -0.0609,0.0304 -0.14442,0.0304 -0.11326,0 -0.17627,-0.0581 -0.063,-0.058 -0.063,-0.1607 0,-0.11255 0.0934,-0.17485 0.0942,-0.0623 0.27184,-0.0658 l 0.14654,-0.004 v -0.051 q 0,-0.10973 -0.0446,-0.16565 -0.0446,-0.0559 -0.14371,-0.0559 -0.10689,0 -0.22157,0.0595 l -0.0262,-0.0609 q 0.12671,-0.0595 0.25059,-0.0595 0.12672,0 0.18902,0.0658 0.063,0.0658 0.063,0.20529 v 0.51182 z m -0.28316,-0.0496 q 0.12318,0 0.19397,-0.0701 0.0715,-0.0708 0.0715,-0.19609 v -0.0757 l -0.1345,0.006 q -0.16211,0.008 -0.23148,0.051 -0.0687,0.0425 -0.0687,0.13308 0,0.0722 0.0439,0.11256 0.0446,0.0396 0.1253,0.0396 z"
           style="font-weight:300;font-family:'Open Sans';-inkscape-font-specification:'Open Sans Light';fill:#222222;fill-opacity:1"
           id="path43190" />
        <path
           d="m 123.62881,103.86389 h -0.0701 v -0.7695 h 0.0701 z m -0.08,-0.98328 q 0,-0.068 0.0446,-0.068 0.0219,0 0.034,0.0177 0.0127,0.0177 0.0127,0.0503 0,0.0318 -0.0127,0.0503 -0.012,0.0184 -0.034,0.0184 -0.0446,0 -0.0446,-0.0687 z"
           style="font-weight:300;font-family:'Open Sans';-inkscape-font-specification:'Open Sans Light';fill:#222222;fill-opacity:1"
           id="path43192" />
        <path
           d="m 124.42308,103.86389 v -0.49908 q 0,-0.11609 -0.0488,-0.16848 -0.0489,-0.0531 -0.15149,-0.0531 -0.13805,0 -0.20246,0.0701 -0.0637,0.0694 -0.0637,0.22582 v 0.42475 h -0.0701 v -0.7695 h 0.0595 l 0.0135,0.10548 h 0.004 q 0.075,-0.12034 0.26688,-0.12034 0.26193,0 0.26193,0.28104 v 0.50332 z"
           style="font-weight:300;font-family:'Open Sans';-inkscape-font-specification:'Open Sans Light';fill:#222222;fill-opacity:1"
           id="path43194" />
        <path
           d="m 125.05241,103.87805 q -0.16777,0 -0.26192,-0.10336 -0.0935,-0.10335 -0.0935,-0.28953 0,-0.18406 0.0906,-0.29449 0.0906,-0.11114 0.24422,-0.11114 0.13592,0 0.2145,0.0949 0.0786,0.0949 0.0786,0.25768 v 0.0566 h -0.55429 q 0.001,0.15857 0.0736,0.2421 0.0729,0.0835 0.20812,0.0835 0.0658,0 0.11539,-0.009 0.0503,-0.009 0.12672,-0.0396 v 0.0637 q -0.0651,0.0283 -0.12035,0.0382 -0.0552,0.0106 -0.12176,0.0106 z m -0.0205,-0.73623 q -0.11114,0 -0.17839,0.0736 -0.0672,0.0729 -0.0786,0.21095 h 0.47572 q 0,-0.13379 -0.058,-0.20883 -0.0581,-0.0757 -0.1607,-0.0757 z"
           style="font-weight:300;font-family:'Open Sans';-inkscape-font-specification:'Open Sans Light';fill:#222222;fill-opacity:1"
           id="path43196" />
        <path
           d="m 125.84031,103.07953 q 0.0489,0 0.10477,0.01 l -0.0135,0.0673 q -0.0481,-0.012 -0.0998,-0.012 -0.0984,0 -0.1614,0.0835 -0.063,0.0835 -0.063,0.21095 v 0.42475 h -0.0701 v -0.7695 h 0.0595 l 0.007,0.13875 h 0.005 q 0.0474,-0.0849 0.10123,-0.11892 0.0538,-0.0347 0.13026,-0.0347 z"
           style="font-weight:300;font-family:'Open Sans';-inkscape-font-specification:'Open Sans Light';fill:#222222;fill-opacity:1"
           id="path43198" />
      </g>
    </g>
  </g>
</svg>
