<?xml version="1.0" encoding="UTF-8" standalone="no"?>
<!-- Created with Inkscape (http://www.inkscape.org/) -->

<svg
   width="656.76251mm"
   height="109.9222mm"
   viewBox="0 0 656.76251 109.9222"
   version="1.1"
   id="svg43602"
   inkscape:version="1.1.2 (0a00cf5339, 2022-02-04)"
   sodipodi:docname="logo-lungo-2.svg"
   xmlns:inkscape="http://www.inkscape.org/namespaces/inkscape"
   xmlns:sodipodi="http://sodipodi.sourceforge.net/DTD/sodipodi-0.dtd"
   xmlns="http://www.w3.org/2000/svg"
   xmlns:svg="http://www.w3.org/2000/svg">
  <sodipodi:namedview
     id="namedview43604"
     pagecolor="#ffffff"
     bordercolor="#666666"
     borderopacity="1.0"
     inkscape:pageshadow="2"
     inkscape:pageopacity="0.0"
     inkscape:pagecheckerboard="true"
     inkscape:document-units="mm"
     showgrid="false"
     fit-margin-top="0"
     fit-margin-left="0"
     fit-margin-right="0"
     fit-margin-bottom="0"
     inkscape:showpageshadow="false"
     showborder="true"
     inkscape:zoom="0.48061196"
     inkscape:cx="487.91961"
     inkscape:cy="420.29749"
     inkscape:window-width="1364"
     inkscape:window-height="722"
     inkscape:window-x="0"
     inkscape:window-y="21"
     inkscape:window-maximized="1"
     inkscape:current-layer="layer2"
     inkscape:snap-bbox="true"
     inkscape:snap-bbox-edge-midpoints="true" />
  <defs
     id="defs43599" />
  <g
     inkscape:label="logo"
     inkscape:groupmode="layer"
     id="layer1"
     transform="translate(99.161301,-206.0652)"
     style="display:inline">
    <g
       inkscape:groupmode="layer"
       id="layer3"
       inkscape:label="goldenrod"
       style="display:inline" />
    <g
       inkscape:groupmode="layer"
       id="layer4"
       inkscape:label="royalblue"
       style="display:inline" />
    <g
       inkscape:groupmode="layer"
       id="layer5"
       inkscape:label="contorno"
       style="display:inline" />
  </g>
  <g
     inkscape:groupmode="layer"
     id="layer2"
     inkscape:label="testo"
     style="display:inline"
     transform="translate(191.71345,-43.268462)">
    <g
       id="g18441"
       transform="matrix(9,0,0,9,-1079.4493,-1423.2252)"
       style="display:inline">
      <path
         id="path7141"
         style="vector-effect:non-scaling-stroke;fill:#daa520;fill-opacity:1;stroke:none;stroke-width:3.75243e-06;-inkscape-stroke:hairline"
         d="m 105.50881,165.47359 c -0.50543,-0.032 -1.02543,-0.032 -1.53105,0 0.11225,0.71044 0.19417,1.42827 0.24492,2.15355 0.13039,1.85616 0.0459,3.75107 -0.23642,5.5521 -0.0652,0.41497 -0.13975,0.82699 -0.22536,1.23703 0.31502,0.22564 0.64297,0.43717 0.98251,0.63299 0.33971,-0.19588 0.66853,-0.40783 0.98253,-0.63299 -0.0853,-0.41041 -0.16044,-0.82155 -0.22507,-1.23703 -0.0142,-0.0913 -0.0284,-0.18312 -0.0414,-0.27497 -0.2384,-1.64001 -0.31264,-3.35566 -0.21062,-5.04412 -0.16753,-0.008 -0.33605,-0.0113 -0.50551,-0.0113 v -1.20002 c 0.20353,-5.6e-4 0.40547,0.006 0.60651,0.0142 0.0439,-0.3991 0.0969,-0.79613 0.15903,-1.19103 z"
         sodipodi:nodetypes="cccccccccccccc" />
      <path
         id="path7145"
         style="vector-effect:non-scaling-stroke;fill:#daa520;fill-opacity:1;stroke:none;stroke-width:3.75243e-06;-inkscape-stroke:hairline"
         d="m 110.74339,164.65709 c -1.56152,-0.89937 -3.25885,-1.42356 -5.0391,-1.56955 -2.04303,-0.16157 -4.04775,0.1956 -5.8676,1.01052 -0.372423,0.16724 -0.735888,0.35229 -1.093513,0.55903 4.53e-4,0.39345 0.01984,0.78237 0.05698,1.16701 0.247753,-0.14088 0.497858,-0.27213 0.752017,-0.39402 1.808796,-0.86515 3.787836,-1.27077 5.839616,-1.1635 1.87371,0.10488 3.65645,0.62732 5.29459,1.55752 0.038,-0.38455 0.057,-0.77353 0.057,-1.16701 z"
         sodipodi:nodetypes="ccccccccc" />
    </g>
    <g
       id="g18437"
       transform="matrix(9,0,0,9,-1071.814,-1402.5734)"
       style="display:inline">
      <path
         id="path7179"
         style="vector-effect:non-scaling-stroke;fill:#4169e1;fill-opacity:1;stroke:none;stroke-width:3.75243e-06;stroke-opacity:1;-inkscape-stroke:hairline"
         d="m 102.91243,172.12155 c -0.86994,-0.6227 -1.64356,-1.35014 -2.31655,-2.17455 -1.498192,-1.83538 -2.422502,-4.09416 -2.644062,-6.41762 0.153924,-0.0873 0.308841,-0.1715 0.465032,-0.25143 1.77838,-0.90779 3.71113,-1.3608 5.74259,-1.32052 2.01561,0.0485 3.92872,0.57981 5.6786,1.57204 -0.0363,0.37426 -0.0904,0.74411 -0.16101,1.11001 -1.55871,-0.85463 -3.24984,-1.34521 -5.01659,-1.46052 -0.50562,-0.0323 -1.02528,-0.0323 -1.53105,0 -1.37746,0.0893 -2.70291,0.40766 -3.960551,0.94551 0.341808,1.71596 1.077521,3.38171 2.146521,4.81258 0.53403,0.7165 1.14527,1.3684 1.82203,1.94755 -0.0641,0.4148 -0.13975,0.82739 -0.22508,1.23704 z"
         sodipodi:nodetypes="ccccccccccccc" />
      <path
         id="path7183"
         style="vector-effect:non-scaling-stroke;fill:#4169e1;fill-opacity:1;fill-rule:nonzero;stroke:none;stroke-width:3.75243e-06;-inkscape-stroke:hairline"
         d="m 104.40044,165.56541 c 1.23689,0.0533 2.43172,0.29188 3.57657,0.70501 -0.078,0.1922 -0.16016,0.38107 -0.24804,0.56901 -0.72903,1.56232 -1.789,2.94659 -3.07658,4.0456 0.0644,0.41486 0.13975,0.82702 0.22508,1.237 1.39331,-0.99892 2.54555,-2.26472 3.41357,-3.76555 0.48745,-0.84624 0.86316,-1.73472 1.12951,-2.65257 v -0.001 c -1.53411,-0.79341 -3.18765,-1.24231 -4.91658,-1.3324 h -0.002 m 0,0 c -0.2007,-0.0113 -0.40321,-0.0142 -0.60651,-0.0142 v 0 1.20001 0 c 0.16923,-6e-5 0.33769,0.003 0.50551,0.0113"
         sodipodi:nodetypes="cccccccccccccccc" />
    </g>
    <path
       id="path13894"
       style="fill:none;fill-opacity:1;stroke:#222222;stroke-width:1.32291667;stroke-linecap:butt;stroke-linejoin:round;stroke-miterlimit:4;stroke-dasharray:none;stroke-opacity:1"
       d="m -190.24759,69.19175 c 2.22975,-1.26792 4.48074,-2.44917 6.76818,-3.54618 16.27911,-7.78635 34.09059,-11.43693 52.55652,-10.4715 16.86312,0.94392 32.907784,5.64588 47.651134,14.01768 m -44.645584,77.34933 c 12.5397,-8.99028 22.90995,-20.38248 30.710794,-33.90525 4.3758,-7.63101 7.75719,-15.62733 10.15434,-23.88789 -13.806994,-7.1406 -28.688764,-11.1807 -44.249134,-11.99151 m 1.35837,58.65138 c -0.1278,-0.8217 -0.2547,-1.64808 -0.3726,-2.47707 -2.14533,-14.76243 -2.81349,-30.20319 -1.89531,-45.39933 11.1321,0.4797 21.8853,2.62701 32.18904,6.34518 -0.702,1.72971 -1.44144,3.42963 -2.23236,5.12109 -6.56118,14.06088 -16.10091,26.51922 -27.68913,36.41013 0.5796,3.73374 1.25775,7.44345 2.02563,11.13327 -2.82591,2.02644 -5.78538,3.93426 -8.84277,5.69709 -3.05586,-1.76265 -6.00741,-3.66633 -8.84259,-5.69709 -7.82946,-5.60403 -14.79195,-12.15126 -20.84889,-19.57077 -13.48371,-16.51842 -21.80196,-36.86742 -23.796,-57.77856 -0.3348,-3.46176 -0.50895,-6.96204 -0.513,-10.50309 3.21858,-1.86066 6.48981,-3.52611 9.84159,-5.03127 16.37865,-7.33428 34.42125,-10.5489 52.80843,-9.09468 16.02216,1.31391 31.298134,6.03162 45.351814,14.12595 0,3.54132 -0.171,7.04214 -0.513,10.50309 -0.3267,3.36843 -0.8136,6.69699 -1.44909,9.99009 -14.02848,-7.69167 -29.248564,-12.1068 -45.149224,-13.14468 -0.5589,3.5541 -1.03617,7.12737 -1.43127,10.71927 -1.8063,-0.1017 -3.62889,-0.1278 -5.45859,-0.1278 l -9e-5,10.80054 c 1.52298,0 3.03921,0.027 4.5495,0.1026 m 2.34081,-21.49461 c -4.54887,-0.288 -9.22878,-0.288 -13.77945,0 m 0,0 c -12.39714,0.8037 -24.32622,3.66894 -35.64498,8.50968 3.07629,15.44355 9.69777,30.4353 19.31871,43.31322 4.80627,6.44841 10.30743,12.31551 16.39827,17.52795 2.54079,-16.20918 3.30129,-33.26337 2.13003,-49.96917 -0.4545,-6.52734 -1.19178,-12.98781 -2.20203,-19.38168 z m 0.072,69.37083 c -0.5868,3.73473 -1.25775,7.443 -2.02824,11.13309 m 17.86743,-35.37846 h -0.018" />
    <g
       aria-label="GAETANO TRIGILIO Chinesiologo e Personal Trainer"
       id="text29530"
       style="font-weight:bold;font-size:1.44979px;line-height:1.25;-inkscape-font-specification:'sans-serif Bold';letter-spacing:0px;word-spacing:0px;fill:#222222;fill-opacity:1;stroke-width:0.181223"
       transform="matrix(25.51228,0,0,25.51228,-2748.0971,-2519.474)">
      <path
         d="m 105.88021,101.4686 h 0.41059 v 0.53659 q -0.0998,0.0326 -0.1883,0.0453 -0.0878,0.0135 -0.17981,0.0135 -0.23432,0 -0.3582,-0.13734 -0.12318,-0.13804 -0.12318,-0.39572 0,-0.25059 0.143,-0.39076 0.1437,-0.14016 0.39784,-0.14016 0.15928,0 0.30723,0.0637 l -0.0729,0.17556 q -0.11327,-0.0566 -0.23573,-0.0566 -0.14229,0 -0.22795,0.0956 -0.0857,0.0956 -0.0857,0.25697 0,0.16848 0.0687,0.25768 0.0694,0.0885 0.20105,0.0885 0.0687,0 0.13945,-0.0142 v -0.21591 h -0.19609 z"
         style="font-family:'Open Sans';-inkscape-font-specification:'Open Sans Bold';fill:#222222;fill-opacity:1"
         id="path43114" />
      <path
         d="m 107.17072,102.04979 -0.075,-0.24635 h -0.37732 l -0.075,0.24635 h -0.23644 l 0.36528,-1.03921 h 0.2683 l 0.36669,1.03921 z m -0.12742,-0.43041 q -0.10406,-0.33484 -0.11751,-0.37873 -0.0127,-0.0439 -0.0184,-0.0694 -0.0234,0.0906 -0.13379,0.4481 z"
         style="font-family:'Open Sans';-inkscape-font-specification:'Open Sans Bold';fill:#222222;fill-opacity:1"
         id="path43116" />
      <path
         d="m 108.13348,102.04979 h -0.59606 v -1.03496 h 0.59606 v 0.17981 h -0.37661 v 0.22724 h 0.35041 v 0.17981 h -0.35041 v 0.26688 h 0.37661 z"
         style="font-family:'Open Sans';-inkscape-font-specification:'Open Sans Bold';fill:#222222;fill-opacity:1"
         id="path43118" />
      <path
         d="m 108.74865,102.04979 h -0.21946 v -0.85232 h -0.28103 v -0.18264 h 0.78152 v 0.18264 h -0.28103 z"
         style="font-family:'Open Sans';-inkscape-font-specification:'Open Sans Bold';fill:#222222;fill-opacity:1"
         id="path43120" />
      <path
         d="m 109.82254,102.04979 -0.075,-0.24635 h -0.37731 l -0.075,0.24635 h -0.23644 l 0.36528,-1.03921 h 0.26829 l 0.3667,1.03921 z m -0.12743,-0.43041 q -0.10406,-0.33484 -0.11751,-0.37873 -0.0127,-0.0439 -0.0184,-0.0694 -0.0234,0.0906 -0.1338,0.4481 z"
         style="font-family:'Open Sans';-inkscape-font-specification:'Open Sans Bold';fill:#222222;fill-opacity:1"
         id="path43122" />
      <path
         d="m 111.10739,102.04979 h -0.27892 l -0.45023,-0.78294 h -0.006 q 0.0134,0.20741 0.0134,0.2959 v 0.48704 h -0.19609 v -1.03496 h 0.27679 l 0.44952,0.77516 h 0.005 q -0.0106,-0.20175 -0.0106,-0.28529 v -0.48987 h 0.19751 z"
         style="font-family:'Open Sans';-inkscape-font-specification:'Open Sans Bold';fill:#222222;fill-opacity:1"
         id="path43124" />
      <path
         d="m 112.30728,101.53089 q 0,0.25697 -0.12742,0.39502 -0.12742,0.13804 -0.36528,0.13804 -0.23785,0 -0.36528,-0.13804 -0.12742,-0.13805 -0.12742,-0.39643 0,-0.25839 0.12742,-0.3943 0.12813,-0.13663 0.3667,-0.13663 0.23856,0 0.36457,0.13733 0.12671,0.13734 0.12671,0.39501 z m -0.75533,0 q 0,0.17344 0.0658,0.26122 0.0658,0.0878 0.19679,0.0878 0.26264,0 0.26264,-0.349 0,-0.3497 -0.26122,-0.3497 -0.13096,0 -0.19751,0.0885 -0.0665,0.0878 -0.0665,0.26121 z"
         style="font-family:'Open Sans';-inkscape-font-specification:'Open Sans Bold';fill:#222222;fill-opacity:1"
         id="path43126" />
      <path
         d="m 113.29764,102.04979 h -0.21945 v -0.85232 h -0.28103 v -0.18264 h 0.78152 v 0.18264 h -0.28104 z"
         style="font-family:'Open Sans';-inkscape-font-specification:'Open Sans Bold';fill:#222222;fill-opacity:1"
         id="path43128" />
      <path
         d="m 113.95741,101.47426 h 0.0708 q 0.10406,0 0.15362,-0.0347 0.0495,-0.0347 0.0495,-0.10902 0,-0.0736 -0.051,-0.10477 -0.0503,-0.0311 -0.15644,-0.0311 h -0.0666 z m 0,0.17839 v 0.39714 h -0.21945 v -1.03496 h 0.30157 q 0.21096,0 0.31219,0.0772 0.10123,0.0765 0.10123,0.2329 0,0.0913 -0.0503,0.16282 -0.0503,0.0708 -0.14228,0.11114 0.2336,0.349 0.30439,0.45094 h -0.24351 l -0.24706,-0.39714 z"
         style="font-family:'Open Sans';-inkscape-font-specification:'Open Sans Bold';fill:#222222;fill-opacity:1"
         id="path43130" />
      <path
         d="m 114.69505,102.04979 v -1.03496 h 0.21945 v 1.03496 z"
         style="font-family:'Open Sans';-inkscape-font-specification:'Open Sans Bold';fill:#222222;fill-opacity:1"
         id="path43132" />
      <path
         d="m 115.5679,101.4686 h 0.41058 v 0.53659 q -0.0998,0.0326 -0.1883,0.0453 -0.0878,0.0135 -0.17981,0.0135 -0.23432,0 -0.3582,-0.13734 -0.12317,-0.13804 -0.12317,-0.39572 0,-0.25059 0.14299,-0.39076 0.14371,-0.14016 0.39785,-0.14016 0.15927,0 0.30723,0.0637 l -0.0729,0.17556 q -0.11326,-0.0566 -0.23573,-0.0566 -0.14229,0 -0.22795,0.0956 -0.0857,0.0956 -0.0857,0.25697 0,0.16848 0.0687,0.25768 0.0694,0.0885 0.20105,0.0885 0.0687,0 0.13946,-0.0142 v -0.21591 h -0.19609 z"
         style="font-family:'Open Sans';-inkscape-font-specification:'Open Sans Bold';fill:#222222;fill-opacity:1"
         id="path43134" />
      <path
         d="m 116.22483,102.04979 v -1.03496 h 0.21945 v 1.03496 z"
         style="font-family:'Open Sans';-inkscape-font-specification:'Open Sans Bold';fill:#222222;fill-opacity:1"
         id="path43136" />
      <path
         d="m 116.70479,102.04979 v -1.03496 h 0.21945 v 0.85374 h 0.41979 v 0.18122 z"
         style="font-family:'Open Sans';-inkscape-font-specification:'Open Sans Bold';fill:#222222;fill-opacity:1"
         id="path43138" />
      <path
         d="m 117.52384,102.04979 v -1.03496 h 0.21945 v 1.03496 z"
         style="font-family:'Open Sans';-inkscape-font-specification:'Open Sans Bold';fill:#222222;fill-opacity:1"
         id="path43140" />
      <path
         d="m 118.94319,101.53089 q 0,0.25697 -0.12742,0.39502 -0.12743,0.13804 -0.36528,0.13804 -0.23786,0 -0.36528,-0.13804 -0.12743,-0.13805 -0.12743,-0.39643 0,-0.25839 0.12743,-0.3943 0.12813,-0.13663 0.36669,-0.13663 0.23857,0 0.36457,0.13733 0.12672,0.13734 0.12672,0.39501 z m -0.75534,0 q 0,0.17344 0.0658,0.26122 0.0658,0.0878 0.1968,0.0878 0.26263,0 0.26263,-0.349 0,-0.3497 -0.26122,-0.3497 -0.13096,0 -0.1975,0.0885 -0.0666,0.0878 -0.0666,0.26121 z"
         style="font-family:'Open Sans';-inkscape-font-specification:'Open Sans Bold';fill:#222222;fill-opacity:1"
         id="path43142" />
      <path
         d="m 105.94534,102.87919 q -0.19467,0 -0.30652,0.12459 -0.11185,0.12459 -0.11185,0.34121 0,0.22158 0.10548,0.34405 0.10547,0.12246 0.30156,0.12246 0.13026,0 0.23928,-0.0333 v 0.0637 q -0.10265,0.0361 -0.25627,0.0361 -0.21803,0 -0.34333,-0.14088 -0.1253,-0.14087 -0.1253,-0.39359 0,-0.15787 0.0595,-0.27821 0.0602,-0.12034 0.17203,-0.18547 0.11255,-0.0658 0.26121,-0.0658 0.15149,0 0.27113,0.0566 l -0.029,0.0651 q -0.11327,-0.0566 -0.23786,-0.0566 z"
         style="font-weight:300;font-family:'Open Sans';-inkscape-font-specification:'Open Sans Light';fill:#222222;fill-opacity:1"
         id="path43144" />
      <path
         d="m 106.92296,103.86389 v -0.49908 q 0,-0.11609 -0.0489,-0.16848 -0.0488,-0.0531 -0.15149,-0.0531 -0.13804,0 -0.20246,0.0701 -0.0637,0.0694 -0.0637,0.22582 v 0.42475 h -0.0701 v -1.1015 h 0.0701 v 0.35041 l -0.004,0.0984 h 0.005 q 0.0432,-0.0694 0.10902,-0.10052 0.0658,-0.0311 0.16353,-0.0311 0.26192,0 0.26192,0.28104 v 0.50332 z"
         style="font-weight:300;font-family:'Open Sans';-inkscape-font-specification:'Open Sans Light';fill:#222222;fill-opacity:1"
         id="path43146" />
      <path
         d="m 107.3116,103.86389 h -0.0701 v -0.7695 h 0.0701 z m -0.08,-0.98328 q 0,-0.068 0.0446,-0.068 0.022,0 0.034,0.0177 0.0127,0.0177 0.0127,0.0503 0,0.0318 -0.0127,0.0503 -0.012,0.0184 -0.034,0.0184 -0.0446,0 -0.0446,-0.0687 z"
         style="font-weight:300;font-family:'Open Sans';-inkscape-font-specification:'Open Sans Light';fill:#222222;fill-opacity:1"
         id="path43148" />
      <path
         d="m 108.10587,103.86389 v -0.49908 q 0,-0.11609 -0.0489,-0.16848 -0.0488,-0.0531 -0.15149,-0.0531 -0.13804,0 -0.20246,0.0701 -0.0637,0.0694 -0.0637,0.22582 v 0.42475 h -0.0701 v -0.7695 h 0.0595 l 0.0135,0.10548 h 0.004 q 0.075,-0.12034 0.26688,-0.12034 0.26192,0 0.26192,0.28104 v 0.50332 z"
         style="font-weight:300;font-family:'Open Sans';-inkscape-font-specification:'Open Sans Light';fill:#222222;fill-opacity:1"
         id="path43150" />
      <path
         d="m 108.73519,103.87805 q -0.16777,0 -0.26192,-0.10336 -0.0934,-0.10335 -0.0934,-0.28953 0,-0.18406 0.0906,-0.29449 0.0906,-0.11114 0.24423,-0.11114 0.13591,0 0.21449,0.0949 0.0786,0.0949 0.0786,0.25768 v 0.0566 h -0.55429 q 10e-4,0.15857 0.0736,0.2421 0.0729,0.0835 0.20812,0.0835 0.0658,0 0.11539,-0.009 0.0503,-0.009 0.12672,-0.0396 v 0.0637 q -0.0651,0.0283 -0.12035,0.0382 -0.0552,0.0106 -0.12176,0.0106 z m -0.0205,-0.73623 q -0.11115,0 -0.1784,0.0736 -0.0673,0.0729 -0.0786,0.21095 h 0.47571 q 0,-0.13379 -0.058,-0.20883 -0.058,-0.0757 -0.16069,-0.0757 z"
         style="font-weight:300;font-family:'Open Sans';-inkscape-font-specification:'Open Sans Light';fill:#222222;fill-opacity:1"
         id="path43152" />
      <path
         d="m 109.69724,103.66355 q 0,0.10335 -0.0786,0.15928 -0.0786,0.0552 -0.22299,0.0552 -0.15432,0 -0.24493,-0.0474 v -0.0757 q 0.11609,0.0581 0.24493,0.0581 0.11397,0 0.17273,-0.0375 0.0595,-0.0382 0.0595,-0.10123 0,-0.0581 -0.0474,-0.0977 -0.0467,-0.0396 -0.15432,-0.0779 -0.11539,-0.0418 -0.16211,-0.0715 -0.0467,-0.0304 -0.0708,-0.068 -0.0234,-0.0382 -0.0234,-0.0927 0,-0.0864 0.0722,-0.13663 0.0729,-0.0503 0.20317,-0.0503 0.1246,0 0.23644,0.0467 l -0.0262,0.0637 q -0.11326,-0.0467 -0.21025,-0.0467 -0.0941,0 -0.14936,0.0311 -0.0552,0.0311 -0.0552,0.0864 0,0.0602 0.0425,0.0963 0.0432,0.0361 0.16778,0.0807 0.10406,0.0375 0.15149,0.068 0.0474,0.0297 0.0708,0.068 0.0241,0.0382 0.0241,0.0899 z"
         style="font-weight:300;font-family:'Open Sans';-inkscape-font-specification:'Open Sans Light';fill:#222222;fill-opacity:1"
         id="path43154" />
      <path
         d="m 109.96553,103.86389 h -0.0701 v -0.7695 h 0.0701 z m -0.08,-0.98328 q 0,-0.068 0.0446,-0.068 0.0219,0 0.034,0.0177 0.0127,0.0177 0.0127,0.0503 0,0.0318 -0.0127,0.0503 -0.012,0.0184 -0.034,0.0184 -0.0446,0 -0.0446,-0.0687 z"
         style="font-weight:300;font-family:'Open Sans';-inkscape-font-specification:'Open Sans Light';fill:#222222;fill-opacity:1"
         id="path43156" />
      <path
         d="m 110.85962,103.47808 q 0,0.1883 -0.0913,0.29449 -0.0913,0.10548 -0.25202,0.10548 -0.10123,0 -0.17839,-0.0489 -0.0772,-0.0489 -0.11822,-0.14016 -0.0411,-0.0913 -0.0411,-0.21096 0,-0.1883 0.0913,-0.29307 0.0913,-0.10548 0.2506,-0.10548 0.15857,0 0.24848,0.10689 0.0906,0.10619 0.0906,0.29166 z m -0.60738,0 q 0,0.15857 0.0694,0.24777 0.0701,0.0885 0.19751,0.0885 0.12742,0 0.19679,-0.0885 0.0701,-0.0892 0.0701,-0.24777 0,-0.15928 -0.0708,-0.24706 -0.0701,-0.0878 -0.19751,-0.0878 -0.12742,0 -0.1968,0.0878 -0.0687,0.0871 -0.0687,0.24706 z"
         style="font-weight:300;font-family:'Open Sans';-inkscape-font-specification:'Open Sans Light';fill:#222222;fill-opacity:1"
         id="path43158" />
      <path
         d="m 111.14278,103.86389 h -0.0701 v -1.1015 h 0.0701 z"
         style="font-weight:300;font-family:'Open Sans';-inkscape-font-specification:'Open Sans Light';fill:#222222;fill-opacity:1"
         id="path43160" />
      <path
         d="m 112.03686,103.47808 q 0,0.1883 -0.0913,0.29449 -0.0913,0.10548 -0.25202,0.10548 -0.10123,0 -0.17839,-0.0489 -0.0772,-0.0489 -0.11822,-0.14016 -0.0411,-0.0913 -0.0411,-0.21096 0,-0.1883 0.0913,-0.29307 0.0913,-0.10548 0.2506,-0.10548 0.15857,0 0.24847,0.10689 0.0906,0.10619 0.0906,0.29166 z m -0.60738,0 q 0,0.15857 0.0694,0.24777 0.0701,0.0885 0.1975,0.0885 0.12743,0 0.1968,-0.0885 0.0701,-0.0892 0.0701,-0.24777 0,-0.15928 -0.0708,-0.24706 -0.0701,-0.0878 -0.1975,-0.0878 -0.12743,0 -0.1968,0.0878 -0.0687,0.0871 -0.0687,0.24706 z"
         style="font-weight:300;font-family:'Open Sans';-inkscape-font-specification:'Open Sans Light';fill:#222222;fill-opacity:1"
         id="path43162" />
      <path
         d="m 112.85025,103.09439 v 0.0489 l -0.15928,0.01 q 0.0637,0.0793 0.0637,0.17415 0,0.11114 -0.0743,0.18051 -0.0736,0.0687 -0.19821,0.0687 -0.0524,0 -0.0736,-0.004 -0.0418,0.0219 -0.0637,0.0517 -0.0219,0.0297 -0.0219,0.063 0,0.0368 0.0276,0.0538 0.0283,0.017 0.0941,0.017 h 0.1345 q 0.1253,0 0.19184,0.051 0.0665,0.0503 0.0665,0.14937 0,0.12176 -0.0991,0.18759 -0.0984,0.0666 -0.28104,0.0666 -0.14512,0 -0.22511,-0.0559 -0.0793,-0.0559 -0.0793,-0.15574 0,-0.0793 0.0489,-0.13167 0.0496,-0.0524 0.13379,-0.0715 -0.0347,-0.0149 -0.0559,-0.0418 -0.0205,-0.0276 -0.0205,-0.063 0,-0.0772 0.0984,-0.13591 -0.0673,-0.0276 -0.10477,-0.0864 -0.0375,-0.0595 -0.0375,-0.13592 0,-0.11538 0.0729,-0.18476 0.0736,-0.0701 0.19821,-0.0701 0.0757,0 0.11752,0.0149 z m -0.62296,0.89975 q 0,0.15857 0.23573,0.15857 0.30299,0 0.30299,-0.19326 0,-0.0694 -0.0474,-0.10052 -0.0474,-0.0311 -0.15362,-0.0311 h -0.126 q -0.21167,0 -0.21167,0.16636 z m 0.0588,-0.65977 q 0,0.0892 0.0538,0.13875 0.0545,0.0489 0.14512,0.0489 0.0963,0 0.14724,-0.0489 0.0517,-0.0488 0.0517,-0.14158 0,-0.0984 -0.0531,-0.14724 -0.0524,-0.0495 -0.14725,-0.0495 -0.092,0 -0.14512,0.0531 -0.0524,0.0524 -0.0524,0.14653 z"
         style="font-weight:300;font-family:'Open Sans';-inkscape-font-specification:'Open Sans Light';fill:#222222;fill-opacity:1"
         id="path43164" />
      <path
         d="m 113.64452,103.47808 q 0,0.1883 -0.0913,0.29449 -0.0913,0.10548 -0.25202,0.10548 -0.10123,0 -0.17839,-0.0489 -0.0772,-0.0489 -0.11822,-0.14016 -0.0411,-0.0913 -0.0411,-0.21096 0,-0.1883 0.0913,-0.29307 0.0913,-0.10548 0.2506,-0.10548 0.15857,0 0.24848,0.10689 0.0906,0.10619 0.0906,0.29166 z m -0.60738,0 q 0,0.15857 0.0694,0.24777 0.0701,0.0885 0.19751,0.0885 0.12742,0 0.19679,-0.0885 0.0701,-0.0892 0.0701,-0.24777 0,-0.15928 -0.0708,-0.24706 -0.0701,-0.0878 -0.19751,-0.0878 -0.12742,0 -0.1968,0.0878 -0.0687,0.0871 -0.0687,0.24706 z"
         style="font-weight:300;font-family:'Open Sans';-inkscape-font-specification:'Open Sans Light';fill:#222222;fill-opacity:1"
         id="path43166" />
      <path
         d="m 114.54497,103.87805 q -0.16777,0 -0.26192,-0.10336 -0.0935,-0.10335 -0.0935,-0.28953 0,-0.18406 0.0906,-0.29449 0.0906,-0.11114 0.24422,-0.11114 0.13592,0 0.2145,0.0949 0.0786,0.0949 0.0786,0.25768 v 0.0566 h -0.55429 q 10e-4,0.15857 0.0736,0.2421 0.0729,0.0835 0.20812,0.0835 0.0658,0 0.11539,-0.009 0.0503,-0.009 0.12672,-0.0396 v 0.0637 q -0.0651,0.0283 -0.12035,0.0382 -0.0552,0.0106 -0.12176,0.0106 z m -0.0205,-0.73623 q -0.11114,0 -0.17839,0.0736 -0.0673,0.0729 -0.0786,0.21095 h 0.47572 q 0,-0.13379 -0.058,-0.20883 -0.0581,-0.0757 -0.1607,-0.0757 z"
         style="font-weight:300;font-family:'Open Sans';-inkscape-font-specification:'Open Sans Light';fill:#222222;fill-opacity:1"
         id="path43168" />
      <path
         d="m 116.04715,103.12625 q 0,0.15008 -0.10194,0.23007 -0.10194,0.08 -0.28883,0.08 h -0.15998 v 0.42758 h -0.0722 v -1.03496 h 0.25343 q 0.36953,0 0.36953,0.29732 z m -0.55075,0.24777 h 0.14229 q 0.17485,0 0.25272,-0.0573 0.0779,-0.0581 0.0779,-0.1876 0,-0.11963 -0.0736,-0.17697 -0.0736,-0.0581 -0.22795,-0.0581 h -0.17131 z"
         style="font-weight:300;font-family:'Open Sans';-inkscape-font-specification:'Open Sans Light';fill:#222222;fill-opacity:1"
         id="path43170" />
      <path
         d="m 116.56533,103.87805 q -0.16777,0 -0.26192,-0.10336 -0.0934,-0.10335 -0.0934,-0.28953 0,-0.18406 0.0906,-0.29449 0.0906,-0.11114 0.24423,-0.11114 0.13591,0 0.21449,0.0949 0.0786,0.0949 0.0786,0.25768 v 0.0566 h -0.55429 q 10e-4,0.15857 0.0736,0.2421 0.0729,0.0835 0.20812,0.0835 0.0658,0 0.11539,-0.009 0.0503,-0.009 0.12672,-0.0396 v 0.0637 q -0.0651,0.0283 -0.12035,0.0382 -0.0552,0.0106 -0.12176,0.0106 z m -0.0205,-0.73623 q -0.11115,0 -0.1784,0.0736 -0.0673,0.0729 -0.0786,0.21095 h 0.47571 q 0,-0.13379 -0.058,-0.20883 -0.058,-0.0757 -0.16069,-0.0757 z"
         style="font-weight:300;font-family:'Open Sans';-inkscape-font-specification:'Open Sans Light';fill:#222222;fill-opacity:1"
         id="path43172" />
      <path
         d="m 117.35323,103.07953 q 0.0489,0 0.10477,0.01 l -0.0134,0.0673 q -0.0481,-0.012 -0.0998,-0.012 -0.0984,0 -0.1614,0.0835 -0.063,0.0835 -0.063,0.21095 v 0.42475 h -0.0701 v -0.7695 h 0.0595 l 0.007,0.13875 h 0.005 q 0.0474,-0.0849 0.10123,-0.11892 0.0538,-0.0347 0.13025,-0.0347 z"
         style="font-weight:300;font-family:'Open Sans';-inkscape-font-specification:'Open Sans Light';fill:#222222;fill-opacity:1"
         id="path43174" />
      <path
         d="m 118.09158,103.66355 q 0,0.10335 -0.0786,0.15928 -0.0786,0.0552 -0.22299,0.0552 -0.15432,0 -0.24493,-0.0474 v -0.0757 q 0.11609,0.0581 0.24493,0.0581 0.11397,0 0.17273,-0.0375 0.0595,-0.0382 0.0595,-0.10123 0,-0.0581 -0.0474,-0.0977 -0.0467,-0.0396 -0.15432,-0.0779 -0.11539,-0.0418 -0.16211,-0.0715 -0.0467,-0.0304 -0.0708,-0.068 -0.0234,-0.0382 -0.0234,-0.0927 0,-0.0864 0.0722,-0.13663 0.0729,-0.0503 0.20316,-0.0503 0.1246,0 0.23644,0.0467 l -0.0262,0.0637 q -0.11326,-0.0467 -0.21025,-0.0467 -0.0941,0 -0.14936,0.0311 -0.0552,0.0311 -0.0552,0.0864 0,0.0602 0.0425,0.0963 0.0432,0.0361 0.16778,0.0807 0.10406,0.0375 0.15149,0.068 0.0474,0.0297 0.0708,0.068 0.0241,0.0382 0.0241,0.0899 z"
         style="font-weight:300;font-family:'Open Sans';-inkscape-font-specification:'Open Sans Light';fill:#222222;fill-opacity:1"
         id="path43176" />
      <path
         d="m 118.9262,103.47808 q 0,0.1883 -0.0913,0.29449 -0.0913,0.10548 -0.25201,0.10548 -0.10124,0 -0.1784,-0.0489 -0.0772,-0.0489 -0.11822,-0.14016 -0.0411,-0.0913 -0.0411,-0.21096 0,-0.1883 0.0913,-0.29307 0.0913,-0.10548 0.2506,-0.10548 0.15857,0 0.24848,0.10689 0.0906,0.10619 0.0906,0.29166 z m -0.60738,0 q 0,0.15857 0.0694,0.24777 0.0701,0.0885 0.19751,0.0885 0.12742,0 0.19679,-0.0885 0.0701,-0.0892 0.0701,-0.24777 0,-0.15928 -0.0708,-0.24706 -0.0701,-0.0878 -0.19751,-0.0878 -0.12742,0 -0.1968,0.0878 -0.0687,0.0871 -0.0687,0.24706 z"
         style="font-weight:300;font-family:'Open Sans';-inkscape-font-specification:'Open Sans Light';fill:#222222;fill-opacity:1"
         id="path43178" />
      <path
         d="m 119.67587,103.86389 v -0.49908 q 0,-0.11609 -0.0488,-0.16848 -0.0489,-0.0531 -0.1515,-0.0531 -0.13804,0 -0.20246,0.0701 -0.0637,0.0694 -0.0637,0.22582 v 0.42475 h -0.0701 v -0.7695 h 0.0595 l 0.0135,0.10548 h 0.004 q 0.075,-0.12034 0.26688,-0.12034 0.26193,0 0.26193,0.28104 v 0.50332 z"
         style="font-weight:300;font-family:'Open Sans';-inkscape-font-specification:'Open Sans Light';fill:#222222;fill-opacity:1"
         id="path43180" />
      <path
         d="m 120.46165,103.86389 -0.0177,-0.12176 h -0.006 q -0.058,0.0743 -0.11963,0.10548 -0.0609,0.0304 -0.14441,0.0304 -0.11327,0 -0.17627,-0.0581 -0.063,-0.058 -0.063,-0.1607 0,-0.11255 0.0934,-0.17485 0.0941,-0.0623 0.27183,-0.0658 l 0.14654,-0.004 v -0.051 q 0,-0.10973 -0.0446,-0.16565 -0.0446,-0.0559 -0.1437,-0.0559 -0.1069,0 -0.22158,0.0595 l -0.0262,-0.0609 q 0.12671,-0.0595 0.2506,-0.0595 0.12671,0 0.18901,0.0658 0.063,0.0658 0.063,0.20529 v 0.51182 z m -0.28317,-0.0496 q 0.12318,0 0.19397,-0.0701 0.0715,-0.0708 0.0715,-0.19609 v -0.0757 l -0.1345,0.006 q -0.16211,0.008 -0.23149,0.051 -0.0687,0.0425 -0.0687,0.13308 0,0.0722 0.0439,0.11256 0.0446,0.0396 0.1253,0.0396 z"
         style="font-weight:300;font-family:'Open Sans';-inkscape-font-specification:'Open Sans Light';fill:#222222;fill-opacity:1"
         id="path43182" />
      <path
         d="m 120.83259,103.86389 h -0.0701 v -1.1015 h 0.0701 z"
         style="font-weight:300;font-family:'Open Sans';-inkscape-font-specification:'Open Sans Light';fill:#222222;fill-opacity:1"
         id="path43184" />
      <path
         d="m 121.75428,103.86389 h -0.0729 v -0.967 h -0.33626 v -0.068 h 0.74543 v 0.068 h -0.33626 z"
         style="font-weight:300;font-family:'Open Sans';-inkscape-font-specification:'Open Sans Light';fill:#222222;fill-opacity:1"
         id="path43186" />
      <path
         d="m 122.52944,103.07953 q 0.0488,0 0.10477,0.01 l -0.0134,0.0673 q -0.0481,-0.012 -0.0998,-0.012 -0.0984,0 -0.1614,0.0835 -0.063,0.0835 -0.063,0.21095 v 0.42475 h -0.0701 v -0.7695 h 0.0595 l 0.007,0.13875 h 0.005 q 0.0474,-0.0849 0.10123,-0.11892 0.0538,-0.0347 0.13026,-0.0347 z"
         style="font-weight:300;font-family:'Open Sans';-inkscape-font-specification:'Open Sans Light';fill:#222222;fill-opacity:1"
         id="path43188" />
      <path
         d="m 123.25787,103.86389 -0.0177,-0.12176 h -0.006 q -0.058,0.0743 -0.11963,0.10548 -0.0609,0.0304 -0.14442,0.0304 -0.11326,0 -0.17627,-0.0581 -0.063,-0.058 -0.063,-0.1607 0,-0.11255 0.0934,-0.17485 0.0942,-0.0623 0.27184,-0.0658 l 0.14654,-0.004 v -0.051 q 0,-0.10973 -0.0446,-0.16565 -0.0446,-0.0559 -0.14371,-0.0559 -0.10689,0 -0.22157,0.0595 l -0.0262,-0.0609 q 0.12671,-0.0595 0.25059,-0.0595 0.12672,0 0.18902,0.0658 0.063,0.0658 0.063,0.20529 v 0.51182 z m -0.28316,-0.0496 q 0.12318,0 0.19397,-0.0701 0.0715,-0.0708 0.0715,-0.19609 v -0.0757 l -0.1345,0.006 q -0.16211,0.008 -0.23148,0.051 -0.0687,0.0425 -0.0687,0.13308 0,0.0722 0.0439,0.11256 0.0446,0.0396 0.1253,0.0396 z"
         style="font-weight:300;font-family:'Open Sans';-inkscape-font-specification:'Open Sans Light';fill:#222222;fill-opacity:1"
         id="path43190" />
      <path
         d="m 123.62881,103.86389 h -0.0701 v -0.7695 h 0.0701 z m -0.08,-0.98328 q 0,-0.068 0.0446,-0.068 0.0219,0 0.034,0.0177 0.0127,0.0177 0.0127,0.0503 0,0.0318 -0.0127,0.0503 -0.012,0.0184 -0.034,0.0184 -0.0446,0 -0.0446,-0.0687 z"
         style="font-weight:300;font-family:'Open Sans';-inkscape-font-specification:'Open Sans Light';fill:#222222;fill-opacity:1"
         id="path43192" />
      <path
         d="m 124.42308,103.86389 v -0.49908 q 0,-0.11609 -0.0488,-0.16848 -0.0489,-0.0531 -0.15149,-0.0531 -0.13805,0 -0.20246,0.0701 -0.0637,0.0694 -0.0637,0.22582 v 0.42475 h -0.0701 v -0.7695 h 0.0595 l 0.0135,0.10548 h 0.004 q 0.075,-0.12034 0.26688,-0.12034 0.26193,0 0.26193,0.28104 v 0.50332 z"
         style="font-weight:300;font-family:'Open Sans';-inkscape-font-specification:'Open Sans Light';fill:#222222;fill-opacity:1"
         id="path43194" />
      <path
         d="m 125.05241,103.87805 q -0.16777,0 -0.26192,-0.10336 -0.0935,-0.10335 -0.0935,-0.28953 0,-0.18406 0.0906,-0.29449 0.0906,-0.11114 0.24422,-0.11114 0.13592,0 0.2145,0.0949 0.0786,0.0949 0.0786,0.25768 v 0.0566 h -0.55429 q 0.001,0.15857 0.0736,0.2421 0.0729,0.0835 0.20812,0.0835 0.0658,0 0.11539,-0.009 0.0503,-0.009 0.12672,-0.0396 v 0.0637 q -0.0651,0.0283 -0.12035,0.0382 -0.0552,0.0106 -0.12176,0.0106 z m -0.0205,-0.73623 q -0.11114,0 -0.17839,0.0736 -0.0672,0.0729 -0.0786,0.21095 h 0.47572 q 0,-0.13379 -0.058,-0.20883 -0.0581,-0.0757 -0.1607,-0.0757 z"
         style="font-weight:300;font-family:'Open Sans';-inkscape-font-specification:'Open Sans Light';fill:#222222;fill-opacity:1"
         id="path43196" />
      <path
         d="m 125.84031,103.07953 q 0.0489,0 0.10477,0.01 l -0.0135,0.0673 q -0.0481,-0.012 -0.0998,-0.012 -0.0984,0 -0.1614,0.0835 -0.063,0.0835 -0.063,0.21095 v 0.42475 h -0.0701 v -0.7695 h 0.0595 l 0.007,0.13875 h 0.005 q 0.0474,-0.0849 0.10123,-0.11892 0.0538,-0.0347 0.13026,-0.0347 z"
         style="font-weight:300;font-family:'Open Sans';-inkscape-font-specification:'Open Sans Light';fill:#222222;fill-opacity:1"
         id="path43198" />
    </g>
  </g>
</svg>
