<?xml version="1.0" encoding="UTF-8" standalone="no"?>
<!-- Created with Inkscape (http://www.inkscape.org/) -->

<svg
   width="210mm"
   height="297mm"
   viewBox="0 0 210 297"
   version="1.1"
   id="svg5"
   inkscape:version="1.1.2 (0a00cf5339, 2022-02-04)"
   sodipodi:docname="logo.jpg.svg"
   xmlns:inkscape="http://www.inkscape.org/namespaces/inkscape"
   xmlns:sodipodi="http://sodipodi.sourceforge.net/DTD/sodipodi-0.dtd"
   xmlns="http://www.w3.org/2000/svg"
   xmlns:svg="http://www.w3.org/2000/svg">
  <sodipodi:namedview
     id="namedview7"
     pagecolor="#ffffff"
     bordercolor="#666666"
     borderopacity="1.0"
     inkscape:pageshadow="2"
     inkscape:pageopacity="0.0"
     inkscape:pagecheckerboard="0"
     inkscape:document-units="mm"
     showgrid="false"
     inkscape:snap-bbox="true"
     inkscape:bbox-paths="true"
     inkscape:bbox-nodes="true"
     inkscape:snap-bbox-edge-midpoints="true"
     inkscape:snap-bbox-midpoints="true"
     inkscape:object-paths="true"
     inkscape:snap-intersection-paths="true"
     inkscape:snap-smooth-nodes="true"
     inkscape:snap-midpoints="true"
     inkscape:snap-object-midpoints="true"
     inkscape:snap-center="true"
     inkscape:snap-text-baseline="true"
     inkscape:object-nodes="true"
     inkscape:zoom="0.35355339"
     inkscape:cx="-6458.7133"
     inkscape:cy="592.55548"
     inkscape:window-width="1364"
     inkscape:window-height="716"
     inkscape:window-x="0"
     inkscape:window-y="21"
     inkscape:window-maximized="1"
     inkscape:current-layer="layer1">
    <inkscape:grid
       type="xygrid"
       id="grid4445" />
  </sodipodi:namedview>
  <defs
     id="defs2">
    <linearGradient
       id="linearGradient50936"
       inkscape:swatch="solid">
      <stop
         style="stop-color:#000000;stop-opacity:1;"
         offset="0"
         id="stop50934" />
    </linearGradient>
    <inkscape:path-effect
       effect="fill_between_many"
       method="originald"
       linkedpaths="#path58674,0,1|#path58677,0,1|#path58680,0,1|#path58683,0,1|#path58686,0,1|"
       id="path-effect58693" />
  </defs>
  <g
     inkscape:label="Livello 1"
     inkscape:groupmode="layer"
     id="layer1">
    <path
       style="vector-effect:non-scaling-stroke;fill:none;fill-opacity:1;stroke:#000000;stroke-width:0.00264583;stroke-miterlimit:4;stroke-dasharray:none;stroke-opacity:1;-inkscape-stroke:hairline;paint-order:stroke fill markers"
       d="m 164.20525,71.691505 c -2.60733,-2.420117 -4.47419,-5.529857 -5.36121,-8.961921"
       id="path61706" />
    <path
       style="vector-effect:non-scaling-stroke;fill:none;fill-opacity:1;stroke:#000000;stroke-width:0.00264583;stroke-miterlimit:4;stroke-dasharray:none;stroke-opacity:1;-inkscape-stroke:hairline;paint-order:stroke fill markers"
       d="m 158.84391,62.72919 c 2.13499,-0.824239 4.40387,-1.246998 6.69244,-1.246997 3.0599,0 6.07245,0.75564 8.77012,2.199814"
       id="path61704" />
    <path
       style="vector-effect:non-scaling-stroke;fill:none;fill-opacity:1;stroke:#000000;stroke-width:0.00264583;stroke-miterlimit:4;stroke-dasharray:none;stroke-opacity:1;-inkscape-stroke:hairline;paint-order:stroke fill markers"
       d="m 164.17939,61.531559 c 0.34424,1.690754 0.51886,3.415649 0.51886,5.149016 v 0 c 0,2.517871 -0.37092,5.030378 -1.09612,7.441557"
       id="path61702"
       sodipodi:nodetypes="cssc" />
    <path
       style="vector-effect:non-scaling-stroke;fill:none;fill-opacity:1;stroke:#000000;stroke-width:0.00264583;stroke-miterlimit:4;stroke-dasharray:none;stroke-opacity:1;-inkscape-stroke:hairline;paint-order:stroke fill markers"
       d="m 166.50139,63.848258 c 0.0866,-0.778317 0.20846,-1.551982 0.36525,-2.318599"
       id="path61700" />
    <path
       style="vector-effect:non-scaling-stroke;fill:none;fill-opacity:1;stroke:#000000;stroke-width:0.00264583;stroke-miterlimit:4;stroke-dasharray:none;stroke-opacity:1;-inkscape-stroke:hairline;paint-order:stroke fill markers"
       d="m 167.47083,74.123072 c -1.6e-4,-5.3e-4 -2.7e-4,-10e-4 -5.3e-4,-0.002 -0.73247,-2.422312 -1.12701,-4.889551 -1.12701,-7.420203 0,-0.182909 0.002,-0.365721 0.006,-0.548408"
       id="path61698" />
    <path
       style="vector-effect:non-scaling-stroke;fill:none;fill-opacity:1;stroke:#000000;stroke-width:0.00264583;stroke-miterlimit:4;stroke-dasharray:none;stroke-opacity:1;-inkscape-stroke:hairline;paint-order:stroke fill markers"
       d="m 156.39019,61.560345 c 2.79012,-1.577641 5.94089,-2.406742 9.14616,-2.406742 3.20829,-10e-7 6.36193,0.830666 9.15393,2.41114"
       id="path61696" />
    <path
       style="vector-effect:non-scaling-stroke;fill:none;fill-opacity:1;stroke:#000000;stroke-width:0.00264583;stroke-miterlimit:4;stroke-dasharray:none;stroke-opacity:1;-inkscape-stroke:hairline;paint-order:stroke fill markers"
       d="m 170.64799,66.856126 c -0.97686,1.813513 -2.25314,3.462359 -3.78448,4.869971"
       id="path61694" />
    <path
       style="vector-effect:non-scaling-stroke;fill:none;fill-opacity:1;stroke:#000000;stroke-width:0.00264583;stroke-miterlimit:4;stroke-dasharray:none;stroke-opacity:1;-inkscape-stroke:hairline;paint-order:stroke fill markers"
       d="m 170.6409,66.854226 c -1.66003,-0.474256 -3.37806,-0.714854 -5.10449,-0.714854 l 0.008,-2.329142 c 2.8227,0.02339 5.60299,0.689557 8.12979,1.947941"
       id="path61692" />
    <path
       style="vector-effect:non-scaling-stroke;fill:none;fill-opacity:1;stroke:#000000;stroke-width:0.00264583;stroke-miterlimit:4;stroke-dasharray:none;stroke-opacity:1;-inkscape-stroke:hairline;paint-order:stroke fill markers"
       d="m 165.53631,56.825322 c -3.26159,3.1e-5 -6.46572,0.858541 -9.29039,2.489253 -3e-5,5.858338 2.75793,11.323992 7.35712,14.809037 0.61264,0.46424 1.25796,0.89333 1.93378,1.28352 5.74863,-3.319033 9.2902,-9.452517 9.29091,-16.090491 -2.82478,-1.631609 -6.0293,-2.490841 -9.29142,-2.491319 z"
       id="path4926"
       sodipodi:nodetypes="ccsccc" />
    <path
       id="path58686"
       style="vector-effect:non-scaling-stroke;fill:#4169e1;fill-opacity:1;stroke:none;stroke-width:0.00264583;stroke-miterlimit:4;stroke-dasharray:none;stroke-opacity:1;-inkscape-stroke:hairline;paint-order:stroke fill markers"
       d="m 164.50191,43.413471 c -2.60732,-2.420116 -4.47419,-5.529857 -5.36128,-8.962099 1.58528,-0.612226 3.24446,-1.002899 4.93071,-1.163485 1.2071,-0.109819 2.40023,-0.104836 3.52218,-1.1e-4 2.44793,0.232971 4.83141,0.950159 7.01025,2.116423 0.16853,-0.693987 0.297,-1.400596 0.38382,-2.117006 -2.79244,-1.580933 -5.94608,-2.4116 -9.15437,-2.4116 -3.20527,0 -6.36366,0.835213 -9.15378,2.412854 l 3e-5,1.9e-4 c 0.6083,4.987981 3.21639,9.522445 7.21947,12.556086 0.23997,-0.798571 0.44113,-1.614116 0.60297,-2.431253 z"
       sodipodi:nodetypes="ccccccscccc" />
    <path
       id="path58683"
       style="vector-effect:non-scaling-stroke;fill:#daa520;fill-opacity:1;stroke:none;stroke-width:0.00264583;stroke-miterlimit:4;stroke-dasharray:none;stroke-opacity:1;-inkscape-stroke:hairline;paint-order:stroke fill markers"
       d="m 175.12497,31.044078 c -2.82477,-1.63161 -6.02929,-2.490842 -9.29142,-2.49132 -3.26159,3e-5 -6.46572,0.85854 -9.29039,2.489253 0,0.750878 0.0455,1.501066 0.13628,2.246437 2.79012,-1.577642 5.94957,-2.407087 9.15483,-2.407087 3.2083,0 6.36193,0.830668 9.15393,2.41114 0.091,-0.746019 0.13669,-1.496872 0.13677,-2.248423 z"
       sodipodi:nodetypes="ccccscc" />
    <path
       id="path58680"
       style="vector-effect:non-scaling-stroke;fill:#daa520;fill-opacity:1;stroke:none;stroke-width:0.00264583;stroke-miterlimit:4;stroke-dasharray:none;stroke-opacity:1;-inkscape-stroke:hairline;paint-order:stroke fill markers"
       d="m 163.89855,45.840442 3.4e-4,2.62e-4 c 0.61744,0.468089 1.26355,0.89709 1.93456,1.284504 0.67062,-0.387192 1.31639,-0.815928 1.93377,-1.283887 9e-5,-7.23e-4 -1e-5,-0.0013 -2.8e-4,-0.0018 -0.73247,-2.422313 -1.12701,-4.889552 -1.12701,-7.420205 0,-0.182909 0.002,-0.36572 0.006,-0.546263 -0.27085,-0.0097 -0.54179,-0.01564 -0.81295,-0.01564 l 0.008,-2.329143 c 0.31967,0.0026 0.63921,0.01355 0.95795,0.03555 0.0862,-0.775442 0.20808,-1.549107 0.36498,-2.315788 -0.44268,-0.03185 -0.88649,-0.04776 -1.33043,-0.04776 -0.45281,0 -0.90548,0.01655 -1.357,0.04968 0.34431,1.690806 0.51892,3.415702 0.51892,5.14907 v 0 c 0,2.51787 -0.37091,5.030377 -1.09611,7.44155 l -5e-4,-3.32e-4 z"
       sodipodi:nodetypes="cccccscccccscssccc" />
    <path
       id="path58677"
       style="vector-effect:non-scaling-stroke;fill:none;fill-opacity:1;stroke:none;stroke-width:0.00264583;stroke-miterlimit:4;stroke-dasharray:none;stroke-opacity:1;-inkscape-stroke:hairline;paint-order:stroke fill markers"
       d="m 173.97134,37.483314 c 0.25193,-0.681719 0.46367,-1.377691 0.63243,-2.079113 -0.0179,-0.0035 -0.0341,-0.01219 -0.0504,-0.02082 -2.28822,-1.21625 -4.80554,-1.940452 -7.39066,-2.126043 -0.15677,0.764634 -0.27846,1.536234 -0.3587,2.313015 2.49625,0.151502 4.93035,0.802267 7.16346,1.914043 l 0.003,0.001 z"
       sodipodi:nodetypes="cccccccc" />
    <path
       id="path58674"
       style="vector-effect:non-scaling-stroke;fill:#4169e1;fill-opacity:1;fill-rule:evenodd;stroke:none;stroke-width:0.00264583;stroke-miterlimit:4;stroke-dasharray:none;stroke-opacity:1;-inkscape-stroke:hairline;paint-order:stroke fill markers"
       d="m 167.76894,45.845421 c -7.8e-4,-9.7e-5 -8.8e-4,-6.68e-4 -10e-4,-0.0012 -4.8e-4,-0.0016 -9.5e-4,-0.0031 -0.001,-0.0047 -0.24324,-0.804918 -0.44917,-1.614802 -0.61075,-2.410499 1.5363,-1.387787 2.81258,-3.036634 3.78594,-4.851096 -1.66353,-0.475205 -3.38155,-0.715804 -5.10819,-0.715804 l 0.008,-2.329143 c 2.82271,0.02339 5.60299,0.689557 8.1294,1.950336 -1.22891,3.322627 -3.38033,6.222823 -6.20206,8.362074 z"
       sodipodi:nodetypes="cccccccccc" />
    <circle
       style="vector-effect:non-scaling-stroke;fill:none;fill-opacity:1;fill-rule:evenodd;stroke:#000000;stroke-width:0.00700042;stroke-miterlimit:4;stroke-dasharray:none;stroke-opacity:1;-inkscape-stroke:hairline;paint-order:stroke fill markers"
       id="path68244"
       cx="-4878.3813"
       cy="-607.89673"
       r="1000" />
    <circle
       style="vector-effect:non-scaling-stroke;fill:none;fill-opacity:1;fill-rule:evenodd;stroke:#000000;stroke-width:0.00700042;stroke-miterlimit:4;stroke-dasharray:none;stroke-opacity:1;-inkscape-stroke:hairline;paint-order:stroke fill markers"
       id="circle68246"
       cx="-3878.3811"
       cy="-607.89673"
       r="1000" />
    <path
       style="vector-effect:non-scaling-stroke;fill:none;stroke:#000000;stroke-width:0.0070004;stroke-linecap:butt;stroke-linejoin:miter;stroke-miterlimit:4;stroke-dasharray:none;stroke-opacity:1;-inkscape-stroke:hairline"
       d="M -4378.3815,2042.6822 V -2048.0182"
       id="path68361"
       sodipodi:nodetypes="cc" />
    <circle
       style="vector-effect:non-scaling-stroke;fill:none;fill-opacity:1;fill-rule:evenodd;stroke:#000000;stroke-width:0.00700042;stroke-miterlimit:4;stroke-dasharray:none;stroke-opacity:1;-inkscape-stroke:hairline;paint-order:stroke fill markers"
       id="path68998"
       cx="-4378.3472"
       cy="258.1095"
       r="1000" />
    <path
       style="vector-effect:non-scaling-stroke;fill:none;stroke:#000000;stroke-width:0.0070004;stroke-linecap:butt;stroke-linejoin:miter;stroke-miterlimit:4;stroke-dasharray:none;stroke-opacity:1;-inkscape-stroke:hairline"
       d="m -2377.4265,-1474.5138 -4695.008,2710.7285"
       id="path69033"
       sodipodi:nodetypes="cc" />
    <path
       style="vector-effect:non-scaling-stroke;fill:none;stroke:#000000;stroke-width:0.0070004;stroke-linecap:butt;stroke-linejoin:miter;stroke-miterlimit:4;stroke-dasharray:none;stroke-opacity:1;-inkscape-stroke:hairline"
       d="m -6374.1775,-1471.4559 4222.214,2437.58605"
       id="path69363"
       sodipodi:nodetypes="cc" />
    <g
       id="g71314"
       transform="matrix(10,0,0,10,19490.482,-735.11608)">
      <g
         id="g70668"
         transform="translate(86.603516,49.998306)">
        <circle
           style="vector-effect:non-scaling-stroke;fill:none;fill-opacity:1;fill-rule:evenodd;stroke:#000000;stroke-width:0.000700042;stroke-miterlimit:4;stroke-dasharray:none;stroke-opacity:1;-inkscape-stroke:hairline;paint-order:stroke fill markers"
           id="path70579"
           cx="-1791.1288"
           cy="51.651421"
           r="10" />
        <circle
           style="vector-effect:non-scaling-stroke;fill:none;fill-opacity:1;fill-rule:evenodd;stroke:#000000;stroke-width:0.000700042;stroke-miterlimit:4;stroke-dasharray:none;stroke-opacity:1;-inkscape-stroke:hairline;paint-order:stroke fill markers"
           id="circle70581"
           cx="-1799.7889"
           cy="46.651691"
           r="10" />
        <circle
           style="vector-effect:non-scaling-stroke;fill:none;fill-opacity:1;fill-rule:evenodd;stroke:#000000;stroke-width:0.000700042;stroke-miterlimit:4;stroke-dasharray:none;stroke-opacity:1;-inkscape-stroke:hairline;paint-order:stroke fill markers"
           id="circle70663"
           cx="-1808.4492"
           cy="41.65197"
           r="10" />
      </g>
    </g>
    <circle
       style="vector-effect:non-scaling-stroke;fill:none;fill-opacity:1;fill-rule:evenodd;stroke:#000000;stroke-width:0.00700042;stroke-miterlimit:4;stroke-dasharray:none;stroke-opacity:1;-inkscape-stroke:hairline;paint-order:stroke fill markers"
       id="circle70670"
       cx="2675.4883"
       cy="1096.9785"
       r="100" />
    <circle
       style="vector-effect:non-scaling-stroke;fill:none;fill-opacity:1;fill-rule:evenodd;stroke:#000000;stroke-width:0.00700042;stroke-miterlimit:4;stroke-dasharray:none;stroke-opacity:1;-inkscape-stroke:hairline;paint-order:stroke fill markers"
       id="circle70672"
       cx="2675.4883"
       cy="996.97852"
       r="100" />
    <circle
       style="vector-effect:non-scaling-stroke;fill:none;fill-opacity:1;fill-rule:evenodd;stroke:#000000;stroke-width:0.00700042;stroke-miterlimit:4;stroke-dasharray:none;stroke-opacity:1;-inkscape-stroke:hairline;paint-order:stroke fill markers"
       id="circle70674"
       cx="2675.4883"
       cy="896.97852"
       r="100" />
    <g
       id="g71308"
       transform="matrix(10,0,0,10,18915.233,-706.85843)">
      <circle
         style="vector-effect:non-scaling-stroke;fill:none;fill-opacity:1;fill-rule:evenodd;stroke:#000000;stroke-width:0.000700042;stroke-miterlimit:4;stroke-dasharray:none;stroke-opacity:1;-inkscape-stroke:hairline;paint-order:stroke fill markers"
         id="circle70823"
         cx="-1587.2052"
         cy="91.647758"
         r="10" />
      <circle
         style="vector-effect:non-scaling-stroke;fill:none;fill-opacity:1;fill-rule:evenodd;stroke:#000000;stroke-width:0.000700042;stroke-miterlimit:4;stroke-dasharray:none;stroke-opacity:1;-inkscape-stroke:hairline;paint-order:stroke fill markers"
         id="circle70825"
         cx="-1595.8652"
         cy="96.647758"
         r="10" />
      <circle
         style="vector-effect:non-scaling-stroke;fill:none;fill-opacity:1;fill-rule:evenodd;stroke:#000000;stroke-width:0.000700042;stroke-miterlimit:4;stroke-dasharray:none;stroke-opacity:1;-inkscape-stroke:hairline;paint-order:stroke fill markers"
         id="circle70827"
         cx="-1604.5253"
         cy="101.64777"
         r="10" />
    </g>
    <circle
       style="vector-effect:non-scaling-stroke;fill:none;fill-opacity:1;fill-rule:evenodd;stroke:#000000;stroke-width:0.00700042;stroke-miterlimit:4;stroke-dasharray:none;stroke-opacity:1;-inkscape-stroke:hairline;paint-order:stroke fill markers"
       id="circle71042"
       cx="-4964.9829"
       cy="-657.8941"
       r="1000" />
    <circle
       style="vector-effect:non-scaling-stroke;fill:none;fill-opacity:1;fill-rule:evenodd;stroke:#000000;stroke-width:0.00700042;stroke-miterlimit:4;stroke-dasharray:none;stroke-opacity:1;-inkscape-stroke:hairline;paint-order:stroke fill markers"
       id="circle71046"
       cx="-4378.3984"
       cy="358.13834"
       r="1000" />
    <circle
       style="vector-effect:non-scaling-stroke;fill:none;fill-opacity:1;fill-rule:evenodd;stroke:#000000;stroke-width:0.00700042;stroke-miterlimit:4;stroke-dasharray:none;stroke-opacity:1;-inkscape-stroke:hairline;paint-order:stroke fill markers"
       id="circle71048"
       cx="-4378.3813"
       cy="458.13821"
       r="1000" />
    <circle
       style="vector-effect:non-scaling-stroke;fill:none;fill-opacity:1;fill-rule:evenodd;stroke:#000000;stroke-width:0.00700042;stroke-miterlimit:4;stroke-dasharray:none;stroke-opacity:1;-inkscape-stroke:hairline;paint-order:stroke fill markers"
       id="circle71050"
       cx="-3791.7808"
       cy="-657.91656"
       r="1000" />
    <circle
       style="vector-effect:non-scaling-stroke;fill:none;fill-opacity:1;fill-rule:evenodd;stroke:#000000;stroke-width:0.00700042;stroke-miterlimit:4;stroke-dasharray:none;stroke-opacity:1;-inkscape-stroke:hairline;paint-order:stroke fill markers"
       id="circle71057"
       cx="2675.4883"
       cy="1196.9785"
       r="100" />
    <circle
       style="vector-effect:non-scaling-stroke;fill:none;fill-opacity:1;fill-rule:evenodd;stroke:#000000;stroke-width:0.00700042;stroke-miterlimit:4;stroke-dasharray:none;stroke-opacity:1;-inkscape-stroke:hairline;paint-order:stroke fill markers"
       id="circle71059"
       cx="2675.4883"
       cy="1296.9785"
       r="100" />
    <circle
       style="vector-effect:non-scaling-stroke;fill:none;fill-opacity:1;fill-rule:evenodd;stroke:#000000;stroke-width:0.00700042;stroke-miterlimit:4;stroke-dasharray:none;stroke-opacity:1;-inkscape-stroke:hairline;paint-order:stroke fill markers"
       id="circle71061"
       cx="-4378.3984"
       cy="558.13831"
       r="1000" />
    <circle
       style="vector-effect:non-scaling-stroke;fill:none;fill-opacity:1;fill-rule:evenodd;stroke:#000000;stroke-width:0.00700042;stroke-miterlimit:4;stroke-dasharray:none;stroke-opacity:1;-inkscape-stroke:hairline;paint-order:stroke fill markers"
       id="circle71063"
       cx="-4378.3813"
       cy="658.13818"
       r="1000" />
  </g>
</svg>
