<?xml version="1.0" encoding="UTF-8" standalone="no"?>
<!-- Created with Inkscape (http://www.inkscape.org/) -->

<svg
   width="13.161915mm"
   height="4.2847605mm"
   viewBox="0 0 13.161914 4.2833177"
   version="1.1"
   id="svg93174"
   inkscape:version="1.1.2 (0a00cf5339, 2022-02-04)"
   sodipodi:docname="logo.svg"
   xmlns:inkscape="http://www.inkscape.org/namespaces/inkscape"
   xmlns:sodipodi="http://sodipodi.sourceforge.net/DTD/sodipodi-0.dtd"
   xmlns="http://www.w3.org/2000/svg"
   xmlns:svg="http://www.w3.org/2000/svg">
  <sodipodi:namedview
     id="namedview93176"
     pagecolor="#ffffff"
     bordercolor="#666666"
     borderopacity="1.0"
     inkscape:pageshadow="2"
     inkscape:pageopacity="0.0"
     inkscape:pagecheckerboard="true"
     inkscape:document-units="pt"
     showgrid="false"
     inkscape:zoom="5.12"
     inkscape:cx="44.140625"
     inkscape:cy="-19.628906"
     inkscape:window-width="1364"
     inkscape:window-height="716"
     inkscape:window-x="0"
     inkscape:window-y="21"
     inkscape:window-maximized="1"
     inkscape:current-layer="layer1"
     inkscape:showpageshadow="false"
     showborder="false"
     fit-margin-top="0"
     fit-margin-left="0"
     fit-margin-right="0"
     fit-margin-bottom="0"
     inkscape:snap-bbox="true"
     inkscape:bbox-paths="true"
     inkscape:bbox-nodes="true"
     inkscape:snap-bbox-edge-midpoints="true"
     inkscape:snap-bbox-midpoints="true" />
  <defs
     id="defs93171" />
  <g
     inkscape:label="Livello 1"
     inkscape:groupmode="layer"
     id="layer1"
     transform="translate(-101.0666,-105.5241)">
    <g
       id="g7107"
       transform="matrix(1.0000183,0,0,1.0000183,-0.00185248,-0.00193417)">
      <path
         id="polyline34-3-6"
         style="vector-effect:non-scaling-stroke;fill:#4169e1;fill-opacity:1;stroke:none;stroke-width:1.32375e-06;stroke-opacity:1;-inkscape-stroke:hairline"
         d="m 102.8618,109.55899 c -0.30689,-0.21967 -0.5798,-0.47629 -0.81721,-0.76712 -0.52852,-0.64747 -0.85459,-1.4443 -0.93275,-2.26395 0.0543,-0.0308 0.10895,-0.0605 0.16405,-0.0887 0.62736,-0.32024 1.30918,-0.48005 2.02582,-0.46584 0.71105,0.0171 1.38594,0.20454 2.00325,0.55457 -0.0128,0.13203 -0.0319,0.2625 -0.0568,0.39158 -0.54987,-0.30149 -1.14645,-0.47455 -1.76971,-0.51523 -0.17837,-0.0114 -0.36169,-0.0114 -0.54011,0 -0.48593,0.0315 -0.95351,0.14381 -1.39717,0.33355 0.12058,0.60534 0.38012,1.19297 0.75723,1.69774 0.18839,0.25276 0.40402,0.48273 0.64276,0.68704 -0.0226,0.14633 -0.0493,0.29188 -0.0794,0.43639 z"
         sodipodi:nodetypes="ccccccccccccc" />
      <path
         id="polyline56-3-5"
         style="vector-effect:non-scaling-stroke;fill:#daa520;fill-opacity:1;stroke:none;stroke-width:1.32375e-06;-inkscape-stroke:hairline"
         d="m 103.47846,106.40427 c -0.1783,-0.0113 -0.36174,-0.0113 -0.54011,0 0.0396,0.25062 0.0685,0.50385 0.0864,0.75971 0.046,0.6548 0.0162,1.32327 -0.0834,1.95862 -0.023,0.14639 -0.0493,0.29174 -0.0795,0.43639 0.11113,0.0796 0.22682,0.15422 0.3466,0.2233 0.11984,-0.0691 0.23584,-0.14387 0.34661,-0.2233 -0.0301,-0.14478 -0.0566,-0.28982 -0.0794,-0.43639 -0.005,-0.0322 -0.01,-0.0646 -0.0146,-0.097 -0.0841,-0.57855 -0.11029,-1.18378 -0.0743,-1.77942 -0.0591,-0.003 -0.11855,-0.004 -0.17833,-0.004 v -0.42333 c 0.0718,-2e-4 0.14304,0.002 0.21396,0.005 0.0155,-0.14079 0.0342,-0.28085 0.0561,-0.42016 z"
         sodipodi:nodetypes="cccccccccccccc" />
      <path
         id="polyline72-6-6"
         style="vector-effect:non-scaling-stroke;fill:#4169e1;fill-opacity:1;fill-rule:nonzero;stroke:none;stroke-width:1.32375e-06;-inkscape-stroke:hairline"
         d="m 103.38673,107.24617 c 0.43634,0.0188 0.85784,0.10297 1.26171,0.24871 -0.0275,0.0678 -0.0565,0.13443 -0.0875,0.20073 -0.25718,0.55114 -0.63111,1.03947 -1.08533,1.42717 0.0227,0.14635 0.0493,0.29175 0.0794,0.43638 0.49152,-0.35239 0.898,-0.79893 1.20421,-1.32838 0.17196,-0.29853 0.3045,-0.61196 0.39846,-0.93575 v -4e-4 c -0.54119,-0.27989 -1.12451,-0.43825 -1.73443,-0.47003 h -8.8e-4 m 0,0 c -0.0708,-0.004 -0.14224,-0.005 -0.21396,-0.005 v 0 0.42333 0 c 0.0597,-2e-5 0.11913,0.001 0.17833,0.004"
         sodipodi:nodetypes="cccccccccccccccc" />
      <path
         id="polyline18-4-9"
         style="vector-effect:non-scaling-stroke;fill:#daa520;fill-opacity:1;stroke:none;stroke-width:1.32375e-06;-inkscape-stroke:hairline"
         d="m 105.32507,106.11623 c -0.55086,-0.31727 -1.14963,-0.50219 -1.77765,-0.55369 -0.72072,-0.057 -1.42793,0.069 -2.06992,0.35648 -0.13138,0.059 -0.2596,0.12428 -0.38576,0.19721 1.6e-4,0.1388 0.007,0.276 0.0201,0.41169 0.0874,-0.0497 0.17563,-0.096 0.26529,-0.139 0.63809,-0.3052 1.33624,-0.44829 2.06005,-0.41045 0.66099,0.037 1.28989,0.2213 1.86778,0.54945 0.0134,-0.13566 0.0201,-0.27288 0.0201,-0.41169 z"
         sodipodi:nodetypes="ccccccccc" />
      <g
         aria-label="GAETANO
TRIGILIO"
         id="text16801"
         style="font-weight:bold;font-size:1909.34px;line-height:1;font-family:'Liberation Serif';-inkscape-font-specification:'Liberation Serif Bold';letter-spacing:0px;word-spacing:0px;vector-effect:non-scaling-stroke;fill:#222222;stroke-width:0.0745838;-inkscape-stroke:hairline"
         transform="matrix(0.001,0,0,0.001,107.80482,107.55998)">
        <path
           d="m -1289.179,-755.7 h 502.50693 v 621.8407 q -197.64652,83.906542 -444.70463,83.906542 -322.5741,0 -495.0486,-181.797502 -171.5423,-182.72981 -171.5423,-516.49138 0,-207.90177 84.8388,-368.25646 85.7712,-161.287 244.2613,-248.9228 159.4224,-87.6357 365.4596,-87.6357 222.81849,0 399.95452,82.042 l -38.22409,85.7711 q -177.13603,-82.042 -367.32423,-82.042 -269.4332,0 -427.9233,166.8808 -157.5579,165.9485 -157.5579,448.43388 0,307.65732 150.0995,463.35057 150.0995,154.76095 440.9755,154.76095 188.3236,0 319.77716,-53.14081 V -666.19969 H -1289.179 Z"
           style="font-weight:300;font-family:'Open Sans';-inkscape-font-specification:'Open Sans Light';vector-effect:non-scaling-stroke"
           id="path897" />
        <path
           d="M 211.81578,-549.66283 H -341.9674 L -532.15556,-68.598656 H -637.50488 L -89.315479,-1437.2076 H -28.71631 L 508.28556,-68.598656 H 401.07164 Z m -519.28827,-85.77113 H 180.11775 L -5.4089371,-1126.7534 q -23.3073729,-57.8023 -55.9376939,-160.3547 -25.171963,89.5003 -55.005399,162.2193 z"
           style="font-weight:300;font-family:'Open Sans';-inkscape-font-specification:'Open Sans Light';vector-effect:non-scaling-stroke"
           id="path899" />
        <path
           d="M 1446.1741,-68.598656 H 701.27045 V -1431.6138 h 744.90365 v 87.6357 H 796.36453 v 515.5591 h 613.45007 v 87.63572 H 796.36453 v 584.5489 h 649.80957 z"
           style="font-weight:300;font-family:'Open Sans';-inkscape-font-specification:'Open Sans Light';vector-effect:non-scaling-stroke"
           id="path901" />
        <path
           d="m 2109.9682,-68.598656 h -96.0264 V -1342.1135 h -442.84 v -89.5003 h 981.7065 v 89.5003 h -442.8401 z"
           style="font-weight:300;font-family:'Open Sans';-inkscape-font-specification:'Open Sans Light';vector-effect:non-scaling-stroke"
           id="path903" />
        <path
           d="M 3411.4518,-549.66283 H 2857.6686 L 2667.4804,-68.598656 H 2562.1311 L 3110.3205,-1437.2076 h 60.5992 l 537.0018,1368.608944 h -107.2139 z m -519.2883,-85.77113 h 487.5902 L 3194.227,-1126.7534 q -23.3073,-57.8023 -55.9376,-160.3547 -25.172,89.5003 -55.0054,162.2193 z"
           style="font-weight:300;font-family:'Open Sans';-inkscape-font-specification:'Open Sans Light';vector-effect:non-scaling-stroke"
           id="path905" />
        <path
           d="m 4891.9362,-68.598656 h -96.0264 L 3988.5424,-1278.7174 h -7.4584 q 11.1876,216.2924 11.1876,326.30317 v 883.815574 h -91.3649 V -1431.6138 h 95.0941 l 806.435,1208.25419 h 5.5938 q -8.3906,-167.81308 -8.3906,-318.84486 v -889.40933 h 92.2972 z"
           style="font-weight:300;font-family:'Open Sans';-inkscape-font-specification:'Open Sans Light';vector-effect:non-scaling-stroke"
           id="path907" />
        <path
           d="m 6423.6966,-751.97082 q 0,324.43863 -162.2193,513.69449 -162.2193,188.323572 -447.5015,188.323572 -284.35,0 -446.5693,-188.323572 -162.2193,-189.25586 -162.2193,-515.55908 0,-325.37089 163.1516,-511.82989 164.0839,-187.3913 447.5015,-187.3913 285.2823,0 446.5693,188.3236 161.287,187.3913 161.287,512.76218 z m -1115.0247,0 q 0,292.7406 130.5213,453.09532 130.5213,159.42243 374.7826,159.42243 246.1258,0 375.7148,-158.49013 130.5213,-158.49014 130.5213,-454.02762 0,-294.60518 -130.5213,-451.23078 -129.589,-157.5578 -373.8503,-157.5578 -243.3289,0 -375.7148,158.4901 -131.4536,158.4902 -131.4536,450.29848 z"
           style="font-weight:300;font-family:'Open Sans';-inkscape-font-specification:'Open Sans Light';vector-effect:non-scaling-stroke"
           id="path909" />
        <path
           d="m -1269.6008,1845.9178 h -368.2565 V 784.03395 h -332.8293 V 482.90269 h 1032.98275 v 301.13126 h -331.89695 z"
           style="font-weight:800;font-family:'Open Sans';-inkscape-font-specification:'Open Sans Ultra-Bold';vector-effect:non-scaling-stroke"
           id="path911" />
        <path
           d="m -374.59778,1349.937 v 495.9808 H -742.85427 V 482.90269 h 446.56926 q 555.64777,0 555.64777,402.7514 0,236.80291 -231.209139,366.39191 L 425.31125,1845.9178 H 7.6431333 L -281.36829,1349.937 Z m 0,-276.8916 h 68.98983 q 192.98504,0 192.98504,-170.61 0,-140.77653 -189.25587,-140.77653 h -72.719 z"
           style="font-weight:800;font-family:'Open Sans';-inkscape-font-specification:'Open Sans Ultra-Bold';vector-effect:non-scaling-stroke"
           id="path913" />
        <path
           d="M 549.3065,1845.9178 V 482.90269 H 919.42758 V 1845.9178 Z"
           style="font-weight:800;font-family:'Open Sans';-inkscape-font-specification:'Open Sans Ultra-Bold';vector-effect:non-scaling-stroke"
           id="path915" />
        <path
           d="m 1761.2899,1047.8734 h 588.2781 v 734.6484 q -239.5998,82.0419 -526.7466,82.0419 -315.1157,0 -487.5902,-182.7298 -171.5423,-182.7298 -171.5423,-521.1528 0,-330.03241 188.3236,-513.69451 188.3235,-183.66209 527.6789,-183.66209 128.6567,0 242.3967,24.23967 114.6722,24.23966 199.5111,61.53146 l -116.5369,289.01142 q -147.3026,-72.719 -323.5063,-72.719 -161.287,0 -249.8551,105.34932 -87.6357,104.41703 -87.6357,299.26663 0,191.1205 79.2451,291.8083 80.1773,99.7556 230.2768,99.7556 82.042,0 151.0318,-15.849 v -213.4956 h -243.329 z"
           style="font-weight:800;font-family:'Open Sans';-inkscape-font-specification:'Open Sans Ultra-Bold';vector-effect:non-scaling-stroke"
           id="path917" />
        <path
           d="M 2627.3917,1845.9178 V 482.90269 h 370.1211 V 1845.9178 Z"
           style="font-weight:800;font-family:'Open Sans';-inkscape-font-specification:'Open Sans Ultra-Bold';vector-effect:non-scaling-stroke"
           id="path919" />
        <path
           d="M 3292.1183,1845.9178 V 482.90269 h 368.2565 V 1548.5158 h 524.882 v 297.402 z"
           style="font-weight:800;font-family:'Open Sans';-inkscape-font-specification:'Open Sans Ultra-Bold';vector-effect:non-scaling-stroke"
           id="path921" />
        <path
           d="M 4403.4137,1845.9178 V 482.90269 h 370.1211 V 1845.9178 Z"
           style="font-weight:800;font-family:'Open Sans';-inkscape-font-specification:'Open Sans Ultra-Bold';vector-effect:non-scaling-stroke"
           id="path923" />
        <path
           d="m 6343.5192,1162.5457 q 0,344.0168 -168.7454,523.0174 -168.7454,179.0006 -494.1163,179.0006 -320.7094,0 -492.2517,-179.9329 -170.61,-179.9329 -170.61,-523.9497 0,-340.28765 169.6777,-519.28827 170.61,-179.93292 495.0486,-179.93292 325.3709,0 493.184,178.06833 167.8131,178.06832 167.8131,523.01746 z m -937.8887,0 q 0,395.293 275.027,395.293 139.8442,0 206.9695,-96.0264 68.0575,-96.0263 68.0575,-299.2666 0,-204.17261 -68.9898,-301.13128 -68.0575,-97.89096 -204.1726,-97.89096 -276.8916,0 -276.8916,399.02224 z"
           style="font-weight:800;font-family:'Open Sans';-inkscape-font-specification:'Open Sans Ultra-Bold';vector-effect:non-scaling-stroke"
           id="path925" />
      </g>
      <path
         id="path93584"
         style="vector-effect:non-scaling-stroke;fill:#4169e1;fill-opacity:1;stroke:none;stroke-width:1.32375e-06;stroke-opacity:1;-inkscape-stroke:hairline"
         d="m 102.8618,109.55899 c -0.30689,-0.21967 -0.5798,-0.47629 -0.81721,-0.76712 -0.52852,-0.64747 -0.85459,-1.4443 -0.93275,-2.26395 0.0543,-0.0308 0.10895,-0.0605 0.16405,-0.0887 0.62736,-0.32024 1.30918,-0.48005 2.02582,-0.46584 0.71105,0.0171 1.38594,0.20454 2.00325,0.55457 -0.0128,0.13203 -0.0319,0.2625 -0.0568,0.39158 -0.54987,-0.30149 -1.14645,-0.47455 -1.76971,-0.51523 -0.17837,-0.0114 -0.36169,-0.0114 -0.54011,0 -0.48593,0.0315 -0.95351,0.14381 -1.39717,0.33355 0.12058,0.60534 0.38012,1.19297 0.75723,1.69774 0.18839,0.25276 0.40402,0.48273 0.64276,0.68704 -0.0226,0.14633 -0.0493,0.29188 -0.0794,0.43639 z"
         sodipodi:nodetypes="ccccccccccccc" />
      <path
         id="path93586"
         style="vector-effect:non-scaling-stroke;fill:#daa520;fill-opacity:1;stroke:none;stroke-width:1.32375e-06;-inkscape-stroke:hairline"
         d="m 103.47846,106.40427 c -0.1783,-0.0113 -0.36174,-0.0113 -0.54011,0 0.0396,0.25062 0.0685,0.50385 0.0864,0.75971 0.046,0.6548 0.0162,1.32327 -0.0834,1.95862 -0.023,0.14639 -0.0493,0.29174 -0.0795,0.43639 0.11113,0.0796 0.22682,0.15422 0.3466,0.2233 0.11984,-0.0691 0.23584,-0.14387 0.34661,-0.2233 -0.0301,-0.14478 -0.0566,-0.28982 -0.0794,-0.43639 -0.005,-0.0322 -0.01,-0.0646 -0.0146,-0.097 -0.0841,-0.57855 -0.11029,-1.18378 -0.0743,-1.77942 -0.0591,-0.003 -0.11855,-0.004 -0.17833,-0.004 v -0.42333 c 0.0718,-2e-4 0.14304,0.002 0.21396,0.005 0.0155,-0.14079 0.0342,-0.28085 0.0561,-0.42016 z"
         sodipodi:nodetypes="cccccccccccccc" />
      <path
         id="path93588"
         style="vector-effect:non-scaling-stroke;fill:#4169e1;fill-opacity:1;fill-rule:nonzero;stroke:none;stroke-width:1.32375e-06;-inkscape-stroke:hairline"
         d="m 103.38673,107.24617 c 0.43634,0.0188 0.85784,0.10297 1.26171,0.24871 -0.0275,0.0678 -0.0565,0.13443 -0.0875,0.20073 -0.25718,0.55114 -0.63111,1.03947 -1.08533,1.42717 0.0227,0.14635 0.0493,0.29175 0.0794,0.43638 0.49152,-0.35239 0.898,-0.79893 1.20421,-1.32838 0.17196,-0.29853 0.3045,-0.61196 0.39846,-0.93575 v -4e-4 c -0.54119,-0.27989 -1.12451,-0.43825 -1.73443,-0.47003 h -8.8e-4 m 0,0 c -0.0708,-0.004 -0.14224,-0.005 -0.21396,-0.005 v 0 0.42333 0 c 0.0597,-2e-5 0.11913,0.001 0.17833,0.004"
         sodipodi:nodetypes="cccccccccccccccc" />
      <path
         id="path93590"
         style="vector-effect:non-scaling-stroke;fill:#daa520;fill-opacity:1;stroke:none;stroke-width:1.32375e-06;-inkscape-stroke:hairline"
         d="m 105.32507,106.11623 c -1.08681,-0.63596 -2.46178,-0.74402 -3.63464,-0.28573 -0.20663,0.0794 -0.40703,0.175 -0.59869,0.28573 0.01,0.12493 -0.012,0.32492 0.0365,0.40241 1.0791,-0.6167 2.43361,-0.7173 3.59205,-0.26717 0.20152,0.0772 0.39705,0.16989 0.58467,0.27645 0.0135,-0.13679 0.0201,-0.27425 0.0201,-0.41169 z"
         sodipodi:nodetypes="ccccccccc" />
      <path
         id="path94081"
         style="fill:none;fill-opacity:1;stroke:#222222;stroke-width:0.0500944;stroke-linecap:butt;stroke-linejoin:round;stroke-miterlimit:4;stroke-dasharray:none;stroke-opacity:1"
         d="m 105.325,106.11551 c -0.55086,-0.31727 -1.14963,-0.50219 -1.77765,-0.55369 -0.72072,-0.057 -1.42793,0.069 -2.06992,0.35648 -0.13138,0.059 -0.2596,0.12428 -0.38576,0.19721 1.6e-4,0.1388 0.007,0.276 0.0201,0.41169 0.0874,-0.0497 0.17563,-0.096 0.26529,-0.139 0.63809,-0.3052 1.33624,-0.44829 2.06005,-0.41045 0.66099,0.037 1.28989,0.2213 1.86778,0.54945 0.0134,-0.13566 0.0201,-0.27288 0.0201,-0.41169 z m -1.93834,1.12994 c 0.43634,0.0188 0.85784,0.10297 1.26171,0.24871 -0.0275,0.0678 -0.0565,0.13443 -0.0875,0.20073 -0.25718,0.55114 -0.63111,1.03947 -1.08533,1.42716 0.0227,0.14635 0.0493,0.29176 0.0794,0.43639 0.49152,-0.35239 0.898,-0.79893 1.20421,-1.32839 0.17196,-0.29852 0.3045,-0.61195 0.39846,-0.93574 v -4e-4 c -0.54119,-0.27989 -1.12451,-0.43825 -1.73443,-0.47003 h -8.8e-4 m 0,0 c -0.0708,-0.004 -0.14224,-0.005 -0.21396,-0.005 v 0 0.42333 0 c 0.0597,-2e-5 0.11913,0.001 0.17833,0.004 m 0.0917,-0.8419 c -0.1783,-0.0113 -0.36174,-0.0113 -0.54011,0 0.0396,0.25062 0.0685,0.50385 0.0864,0.7597 0.046,0.65481 0.0162,1.32328 -0.0834,1.95863 -0.023,0.14639 -0.0493,0.29174 -0.0795,0.43638 0.11113,0.0796 0.22682,0.15422 0.3466,0.22331 0.11984,-0.0691 0.23584,-0.14388 0.34661,-0.22331 -0.0301,-0.14477 -0.0566,-0.28981 -0.0794,-0.43638 -0.005,-0.0322 -0.01,-0.0646 -0.0146,-0.097 -0.0841,-0.57854 -0.11029,-1.18377 -0.0743,-1.77941 -0.0591,-0.003 -0.11855,-0.004 -0.17833,-0.004 v -0.42333 c 0.0718,-2e-4 0.14304,0.002 0.21396,0.005 0.0155,-0.14079 0.0342,-0.28085 0.0561,-0.42016 z m -0.61666,3.15471 c -0.30689,-0.21966 -0.5798,-0.47629 -0.81721,-0.76711 -0.52852,-0.64747 -0.85459,-1.4443 -0.93275,-2.26395 0.0543,-0.0308 0.10895,-0.0605 0.16405,-0.0887 0.62736,-0.32024 1.30918,-0.48005 2.02582,-0.46584 0.71105,0.0171 1.38594,0.20454 2.00325,0.55457 -0.0128,0.13203 -0.0319,0.2625 -0.0568,0.39158 -0.54987,-0.30149 -1.14645,-0.47455 -1.76971,-0.51523 -0.17837,-0.0114 -0.36169,-0.0114 -0.54011,0 -0.48593,0.0315 -0.95351,0.14381 -1.39717,0.33355 0.12058,0.60534 0.38012,1.19297 0.75723,1.69774 0.18839,0.25276 0.40402,0.48273 0.64276,0.68704 -0.0226,0.14633 -0.0493,0.29188 -0.0794,0.43638 z m 2.46327,-3.44275 c -0.55086,-0.31727 -1.14963,-0.50219 -1.77765,-0.55369 -0.72072,-0.057 -1.42793,0.069 -2.06992,0.35648 -0.13138,0.059 -0.2596,0.12428 -0.38576,0.19721 1.6e-4,0.1388 0.007,0.276 0.0201,0.41169 0.0874,-0.0497 0.17563,-0.096 0.26529,-0.139 0.63809,-0.3052 1.33624,-0.44829 2.06005,-0.41045 0.66099,0.037 1.28989,0.2213 1.86778,0.54945 0.0134,-0.13566 0.0201,-0.27288 0.0201,-0.41169 z m -1.93834,1.12994 c 0.43634,0.0188 0.85784,0.10297 1.26171,0.24871 -0.0275,0.0678 -0.0565,0.13443 -0.0875,0.20073 -0.25718,0.55114 -0.63111,1.03947 -1.08533,1.42716 0.0227,0.14635 0.0493,0.29176 0.0794,0.43639 0.49152,-0.35239 0.898,-0.79893 1.20421,-1.32839 0.17196,-0.29852 0.3045,-0.61195 0.39846,-0.93574 v -4e-4 c -0.54119,-0.27989 -1.12451,-0.43825 -1.73443,-0.47003 h -8.8e-4 m 0,0 c -0.0708,-0.004 -0.14224,-0.005 -0.21396,-0.005 v 0 0.42333 0 c 0.0597,-2e-5 0.11913,0.001 0.17833,0.004 m 0.0917,-0.8419 c -0.1783,-0.0113 -0.36174,-0.0113 -0.54011,0 0.0396,0.25062 0.0685,0.50385 0.0864,0.7597 0.046,0.65481 0.0162,1.32328 -0.0834,1.95863 -0.023,0.14639 -0.0493,0.29174 -0.0795,0.43638 0.11113,0.0796 0.22682,0.15422 0.3466,0.22331 0.11984,-0.0691 0.23584,-0.14388 0.34661,-0.22331 -0.0301,-0.14477 -0.0566,-0.28981 -0.0794,-0.43638 -0.005,-0.0322 -0.01,-0.0646 -0.0146,-0.097 -0.0841,-0.57854 -0.11029,-1.18377 -0.0743,-1.77941 -0.0591,-0.003 -0.11855,-0.004 -0.17833,-0.004 v -0.42333 c 0.0718,-2e-4 0.14304,0.002 0.21396,0.005 0.0155,-0.14079 0.0342,-0.28085 0.0561,-0.42016 z m -0.61666,3.15471 c -0.30689,-0.21966 -0.5798,-0.47629 -0.81721,-0.76711 -0.52852,-0.64747 -0.85459,-1.4443 -0.93275,-2.26395 0.0543,-0.0308 0.10895,-0.0605 0.16405,-0.0887 0.62736,-0.32024 1.30918,-0.48005 2.02582,-0.46584 0.71105,0.0171 1.38594,0.20454 2.00325,0.55457 -0.0128,0.13203 -0.0319,0.2625 -0.0568,0.39158 -0.54987,-0.30149 -1.14645,-0.47455 -1.76971,-0.51523 -0.17837,-0.0114 -0.36169,-0.0114 -0.54011,0 -0.48593,0.0315 -0.95351,0.14381 -1.39717,0.33355 0.12058,0.60534 0.38012,1.19297 0.75723,1.69774 0.18839,0.25276 0.40402,0.48273 0.64276,0.68704 -0.0226,0.14633 -0.0493,0.29188 -0.0794,0.43638 z" />
    </g>
  </g>
</svg>
